<svg viewBox="0 0 512 512" xmlns="http://www.w3.org/2000/svg"><text x="137.68" y="194.35"><tspan x="137.68" y="194.35"/></text><text transform="scale(4.0128 .2492)" x="231.39" y="430.76"/><text x="718.95" y="114.35"><tspan x="718.95" y="114.35"/></text><text transform="scale(4.0128 .2492)" x="376.24" y="109.72"/><text x="-352.63" y="-66.906"><tspan x="-352.63" y="-66.906"/></text><text transform="scale(4.0128 .2492)" x="109.2" y="-617.63"/><text x="745.42" y="-283.38"><tspan x="745.42" y="-283.38"/></text><text transform="scale(4.0128 .2492)" x="382.84" y="-1486.29"/><text x="1326.69" y="-363.38"><tspan x="1326.69" y="-363.38"/></text><text transform="scale(4.0128 .2492)" x="527.69" y="-1807.32"/><text x="937.57" y="-835.78"><tspan x="937.57" y="-835.78"/></text><text transform="scale(4.0128 .2492)" x="430.72" y="-3702.96"/><text x="1518.83" y="-915.79"><tspan x="1518.83" y="-915.79"/></text><text transform="scale(4.0128 .2492)" x="575.57" y="-4024"/><text x="-313.97" y="498.93"><tspan x="-313.97" y="498.93"/></text><text x="154.74" y="-421"><tspan x="154.74" y="-421"/></text><text transform="scale(4.0128 .2492)" x="235.64" y="-2038.52"/><text x="736.01" y="-501"><tspan x="736.01" y="-501"/></text><text transform="scale(4.0128 .2492)" x="380.49" y="-2359.56"/><text x="-335.57" y="-682.25"><tspan x="-335.57" y="-682.25"/></text><text transform="scale(4.0128 .2492)" x="113.45" y="-3086.91"/><text x="762.48" y="-898.73"><tspan x="762.48" y="-898.73"/></text><text transform="scale(4.0128 .2492)" x="387.09" y="-3955.56"/><text x="1343.75" y="-978.73"><tspan x="1343.75" y="-978.73"/></text><text transform="scale(4.0128 .2492)" x="531.94" y="-4276.59"/><text x="954.63" y="-1451.13"><tspan x="954.63" y="-1451.13"/></text><text transform="scale(4.0128 .2492)" x="434.97" y="-6172.22"/><text x="1535.89" y="-1531.14"><tspan x="1535.89" y="-1531.14"/></text><text transform="scale(4.0128 .2492)" x="579.82" y="-6493.26"/><text x="-296.91" y="-116.42"><tspan x="-296.91" y="-116.42"/></text><text x="-58.18" y="-624.8"><tspan x="-58.18" y="-624.8"/></text><text transform="scale(4.0128 .2492)" x="182.58" y="-2856.36"/><text x="523.09" y="-704.8"><tspan x="523.09" y="-704.8"/></text><text transform="scale(4.0128 .2492)" x="327.43" y="-3177.39"/><text x="-548.49" y="-886.06"><tspan x="-548.49" y="-886.06"/></text><text transform="scale(4.0128 .2492)" x="60.39" y="-3904.74"/><text x="549.56" y="-1102.53"><tspan x="549.56" y="-1102.53"/></text><text transform="scale(4.0128 .2492)" x="334.03" y="-4773.4"/><text x="1130.83" y="-1182.53"><tspan x="1130.83" y="-1182.53"/></text><text transform="scale(4.0128 .2492)" x="478.88" y="-5094.42"/><text x="741.71" y="-1654.93"><tspan x="741.71" y="-1654.93"/></text><text transform="scale(4.0128 .2492)" x="381.91" y="-6990.06"/><text x="1322.97" y="-1734.94"><tspan x="1322.97" y="-1734.94"/></text><text transform="scale(4.0128 .2492)" x="526.76" y="-7311.09"/><text x="-509.83" y="-320.22"><tspan x="-509.83" y="-320.22"/></text><text x="729.64" y="231.36"><tspan x="729.64" y="231.36"/></text><text transform="scale(4.0128 .2492)" x="378.91" y="579.26"/><text x="1310.91" y="151.36"><tspan x="1310.91" y="151.36"/></text><text transform="scale(4.0128 .2492)" x="523.76" y="258.22"/><text x="239.33" y="-29.9"><tspan x="239.33" y="-29.9"/></text><text transform="scale(4.0128 .2492)" x="256.72" y="-469.13"/><text x="1337.38" y="-246.37"><tspan x="1337.38" y="-246.37"/></text><text transform="scale(4.0128 .2492)" x="530.36" y="-1337.8"/><text x="1918.65" y="-326.37"><tspan x="1918.65" y="-326.37"/></text><text transform="scale(4.0128 .2492)" x="675.21" y="-1658.83"/><text x="1529.53" y="-798.77"><tspan x="1529.53" y="-798.77"/></text><text transform="scale(4.0128 .2492)" x="578.24" y="-3554.48"/><text x="2110.79" y="-878.78"><tspan x="2110.79" y="-878.78"/></text><text transform="scale(4.0128 .2492)" x="723.09" y="-3875.52"/><text x="277.99" y="535.94"><tspan x="277.99" y="535.94"/></text><text x="886.63" y="154.81"><tspan x="886.63" y="154.81"/></text><text transform="scale(4.0128 .2492)" x="418.03" y="272.09"/><text x="1467.9" y="74.81"><tspan x="1467.9" y="74.81"/></text><text transform="scale(4.0128 .2492)" x="562.88" y="-48.947"/><text x="396.32" y="-106.45"><tspan x="396.32" y="-106.45"/></text><text transform="scale(4.0128 .2492)" x="295.84" y="-776.29"/><text x="1494.37" y="-322.92"><tspan x="1494.37" y="-322.92"/></text><text transform="scale(4.0128 .2492)" x="569.48" y="-1644.95"/><text x="2075.64" y="-402.92"><tspan x="2075.64" y="-402.92"/></text><text transform="scale(4.0128 .2492)" x="714.33" y="-1965.98"/><text x="1686.52" y="-875.32"><tspan x="1686.52" y="-875.32"/></text><text transform="scale(4.0128 .2492)" x="617.36" y="-3861.61"/><text x="2267.78" y="-955.33"><tspan x="2267.78" y="-955.33"/></text><text transform="scale(4.0128 .2492)" x="762.21" y="-4182.65"/><text x="434.98" y="459.39"><tspan x="434.98" y="459.39"/></text><text x="137.68" y="194.35"><tspan x="137.68" y="194.35"/></text><text transform="scale(4.0128 .2492)" x="231.39" y="430.76"/><text x="718.95" y="114.35"><tspan x="718.95" y="114.35"/></text><text transform="scale(4.0128 .2492)" x="376.24" y="109.72"/><text x="-352.63" y="-66.906"><tspan x="-352.63" y="-66.906"/></text><text transform="scale(4.0128 .2492)" x="109.2" y="-617.63"/><text x="745.42" y="-283.38"><tspan x="745.42" y="-283.38"/></text><text transform="scale(4.0128 .2492)" x="382.84" y="-1486.28"/><text x="1326.69" y="-363.38"><tspan x="1326.69" y="-363.38"/></text><text transform="scale(4.0128 .2492)" x="527.69" y="-1807.31"/><text x="937.57" y="-835.78"><tspan x="937.57" y="-835.78"/></text><text transform="scale(4.0128 .2492)" x="430.72" y="-3702.94"/><text x="1518.83" y="-915.79"><tspan x="1518.83" y="-915.79"/></text><text transform="scale(4.0128 .2492)" x="575.57" y="-4023.98"/><text x="-313.97" y="498.93"><tspan x="-313.97" y="498.93"/></text><text x="154.74" y="-421"><tspan x="154.74" y="-421"/></text><text transform="scale(4.0128 .2492)" x="235.64" y="-2038.52"/><text x="736.01" y="-501"><tspan x="736.01" y="-501"/></text><text transform="scale(4.0128 .2492)" x="380.49" y="-2359.56"/><text x="-335.57" y="-682.25"><tspan x="-335.57" y="-682.25"/></text><text transform="scale(4.0128 .2492)" x="113.45" y="-3086.91"/><text x="762.48" y="-898.73"><tspan x="762.48" y="-898.73"/></text><text transform="scale(4.0128 .2492)" x="387.09" y="-3955.56"/><text x="1343.75" y="-978.73"><tspan x="1343.75" y="-978.73"/></text><text transform="scale(4.0128 .2492)" x="531.94" y="-4276.59"/><text x="954.63" y="-1451.13"><tspan x="954.63" y="-1451.13"/></text><text transform="scale(4.0128 .2492)" x="434.97" y="-6172.22"/><text x="1535.89" y="-1531.14"><tspan x="1535.89" y="-1531.14"/></text><text transform="scale(4.0128 .2492)" x="579.82" y="-6493.26"/><text x="-296.91" y="-116.42"><tspan x="-296.91" y="-116.42"/></text><text x="-58.18" y="-624.8"><tspan x="-58.18" y="-624.8"/></text><text transform="scale(4.0128 .2492)" x="182.58" y="-2856.36"/><text x="523.09" y="-704.8"><tspan x="523.09" y="-704.8"/></text><text transform="scale(4.0128 .2492)" x="327.43" y="-3177.39"/><text x="-548.49" y="-886.06"><tspan x="-548.49" y="-886.06"/></text><text transform="scale(4.0128 .2492)" x="60.39" y="-3904.74"/><text x="549.56" y="-1102.53"><tspan x="549.56" y="-1102.53"/></text><text transform="scale(4.0128 .2492)" x="334.03" y="-4773.4"/><text x="1130.83" y="-1182.53"><tspan x="1130.83" y="-1182.53"/></text><text transform="scale(4.0128 .2492)" x="478.88" y="-5094.42"/><text x="741.71" y="-1654.93"><tspan x="741.71" y="-1654.93"/></text><text transform="scale(4.0128 .2492)" x="381.91" y="-6990.06"/><text x="1322.97" y="-1734.94"><tspan x="1322.97" y="-1734.94"/></text><text transform="scale(4.0128 .2492)" x="526.76" y="-7311.09"/><text x="-509.83" y="-320.22"><tspan x="-509.83" y="-320.22"/></text><text x="729.64" y="231.36"><tspan x="729.64" y="231.36"/></text><text transform="scale(4.0128 .2492)" x="378.91" y="579.26"/><text x="1310.91" y="151.36"><tspan x="1310.91" y="151.36"/></text><text transform="scale(4.0128 .2492)" x="523.76" y="258.22"/><text x="239.33" y="-29.9"><tspan x="239.33" y="-29.9"/></text><text transform="scale(4.0128 .2492)" x="256.72" y="-469.13"/><text x="1337.38" y="-246.37"><tspan x="1337.38" y="-246.37"/></text><text transform="scale(4.0128 .2492)" x="530.36" y="-1337.8"/><text x="1918.65" y="-326.37"><tspan x="1918.65" y="-326.37"/></text><text transform="scale(4.0128 .2492)" x="675.21" y="-1658.83"/><text x="1529.53" y="-798.77"><tspan x="1529.53" y="-798.77"/></text><text transform="scale(4.0128 .2492)" x="578.24" y="-3554.48"/><text x="2110.79" y="-878.78"><tspan x="2110.79" y="-878.78"/></text><text transform="scale(4.0128 .2492)" x="723.09" y="-3875.52"/><text x="277.99" y="535.94"><tspan x="277.99" y="535.94"/></text><text x="886.63" y="154.81"><tspan x="886.63" y="154.81"/></text><text transform="scale(4.0128 .2492)" x="418.03" y="272.09"/><text x="1467.9" y="74.81"><tspan x="1467.9" y="74.81"/></text><text transform="scale(4.0128 .2492)" x="562.88" y="-48.947"/><text x="396.32" y="-106.45"><tspan x="396.32" y="-106.45"/></text><text transform="scale(4.0128 .2492)" x="295.84" y="-776.29"/><text x="1494.37" y="-322.92"><tspan x="1494.37" y="-322.92"/></text><text transform="scale(4.0128 .2492)" x="569.48" y="-1644.95"/><text x="2075.64" y="-402.92"><tspan x="2075.64" y="-402.92"/></text><text transform="scale(4.0128 .2492)" x="714.33" y="-1965.98"/><text x="1686.52" y="-875.32"><tspan x="1686.52" y="-875.32"/></text><text transform="scale(4.0128 .2492)" x="617.36" y="-3861.61"/><text x="2267.78" y="-955.33"><tspan x="2267.78" y="-955.33"/></text><text transform="scale(4.0128 .2492)" x="762.21" y="-4182.65"/><text x="434.98" y="459.39"><tspan x="434.98" y="459.39"/></text><text x="811.32" y="269.33"><tspan x="811.32" y="269.33"/></text><text transform="scale(4.0128 .2492)" x="399.26" y="731.64"/><text x="1392.59" y="189.33"><tspan x="1392.59" y="189.33"/></text><text transform="scale(4.0128 .2492)" x="544.11" y="410.6"/><text x="321.01" y="8.07"><tspan x="321.01" y="8.07"/></text><text transform="scale(4.0128 .2492)" x="277.07" y="-316.74"/><text x="1419.06" y="-208.4"><tspan x="1419.06" y="-208.4"/></text><text transform="scale(4.0128 .2492)" x="550.71" y="-1185.4"/><text x="2000.33" y="-288.4"><tspan x="2000.33" y="-288.4"/></text><text transform="scale(4.0128 .2492)" x="695.56" y="-1506.43"/><text x="1611.21" y="-760.8"><tspan x="1611.21" y="-760.8"/></text><text transform="scale(4.0128 .2492)" x="598.59" y="-3402.06"/><text x="2192.47" y="-840.81"><tspan x="2192.47" y="-840.81"/></text><text transform="scale(4.0128 .2492)" x="743.44" y="-3723.1"/><text x="359.67" y="573.91"><tspan x="359.67" y="573.91"/></text><text x="759.16" y="192.63"><tspan x="759.16" y="192.63"/></text><text transform="scale(4.0128 .2492)" x="386.26" y="423.85"/><text x="1340.43" y="112.63"><tspan x="1340.43" y="112.63"/></text><text transform="scale(4.0128 .2492)" x="531.11" y="102.81"/><text x="268.85" y="-68.63"><tspan x="268.85" y="-68.63"/></text><text transform="scale(4.0128 .2492)" x="264.07" y="-624.54"/><text x="1366.9" y="-285.1"><tspan x="1366.9" y="-285.1"/></text><text transform="scale(4.0128 .2492)" x="537.71" y="-1493.19"/><text x="1948.17" y="-365.1"><tspan x="1948.17" y="-365.1"/></text><text transform="scale(4.0128 .2492)" x="682.56" y="-1814.22"/><text x="1559.05" y="-837.5"><tspan x="1559.05" y="-837.5"/></text><text transform="scale(4.0128 .2492)" x="585.59" y="-3709.85"/><text x="2140.31" y="-917.51"><tspan x="2140.31" y="-917.51"/></text><text transform="scale(4.0128 .2492)" x="730.44" y="-4030.89"/><text x="307.51" y="497.21"><tspan x="307.51" y="497.21"/></text><text x="776.23" y="-422.72"><tspan x="776.23" y="-422.72"/></text><text transform="scale(4.0128 .2492)" x="390.52" y="-2045.43"/><text x="1357.5" y="-502.72"><tspan x="1357.5" y="-502.72"/></text><text transform="scale(4.0128 .2492)" x="535.36" y="-2366.47"/><text x="285.92" y="-683.98"><tspan x="285.92" y="-683.98"/></text><text transform="scale(4.0128 .2492)" x="268.33" y="-3093.82"/><text x="1383.97" y="-900.45"><tspan x="1383.97" y="-900.45"/></text><text transform="scale(4.0128 .2492)" x="541.96" y="-3962.47"/><text x="1965.24" y="-980.45"><tspan x="1965.24" y="-980.45"/></text><text transform="scale(4.0128 .2492)" x="686.81" y="-4283.5"/><text x="1576.12" y="-1452.85"><tspan x="1576.12" y="-1452.85"/></text><text transform="scale(4.0128 .2492)" x="589.84" y="-6179.13"/><text x="2157.38" y="-1532.86"><tspan x="2157.38" y="-1532.86"/></text><text transform="scale(4.0128 .2492)" x="734.69" y="-6500.17"/><text x="324.58" y="-118.14"><tspan x="324.58" y="-118.14"/></text><text x="563.31" y="-626.52"><tspan x="563.31" y="-626.52"/></text><text transform="scale(4.0128 .2492)" x="337.46" y="-2863.27"/><text x="1144.58" y="-706.52"><tspan x="1144.58" y="-706.52"/></text><text transform="scale(4.0128 .2492)" x="482.3" y="-3184.31"/><text x="72.997" y="-887.78"><tspan x="72.997" y="-887.78"/></text><text transform="scale(4.0128 .2492)" x="215.27" y="-3911.65"/><text x="1171.05" y="-1104.25"><tspan x="1171.05" y="-1104.25"/></text><text transform="scale(4.0128 .2492)" x="488.9" y="-4780.31"/><text x="1752.32" y="-1184.25"><tspan x="1752.32" y="-1184.25"/></text><text transform="scale(4.0128 .2492)" x="633.75" y="-5101.34"/><text x="1363.2" y="-1656.65"><tspan x="1363.2" y="-1656.65"/></text><text transform="scale(4.0128 .2492)" x="536.78" y="-6996.97"/><text x="1944.46" y="-1736.66"><tspan x="1944.46" y="-1736.66"/></text><text transform="scale(4.0128 .2492)" x="681.63" y="-7318.01"/><text x="111.66" y="-321.94"><tspan x="111.66" y="-321.94"/></text><text x="570.66" y="-582.26"><tspan x="570.66" y="-582.26"/></text><text transform="scale(4.0128 .2492)" x="339.29" y="-2685.65"/><text x="1151.93" y="-662.26"><tspan x="1151.93" y="-662.26"/></text><text transform="scale(4.0128 .2492)" x="484.14" y="-3006.69"/><text x="80.35" y="-843.52"><tspan x="80.35" y="-843.52"/></text><text transform="scale(4.0128 .2492)" x="217.1" y="-3734.03"/><text x="1178.4" y="-1059.99"><tspan x="1178.4" y="-1059.99"/></text><text transform="scale(4.0128 .2492)" x="490.74" y="-4602.69"/><text x="1759.67" y="-1139.99"><tspan x="1759.67" y="-1139.99"/></text><text transform="scale(4.0128 .2492)" x="635.59" y="-4923.72"/><text x="1370.55" y="-1612.39"><tspan x="1370.55" y="-1612.39"/></text><text transform="scale(4.0128 .2492)" x="538.62" y="-6819.35"/><text x="1951.81" y="-1692.4"><tspan x="1951.81" y="-1692.4"/></text><text transform="scale(4.0128 .2492)" x="683.47" y="-7140.39"/><text x="119.01" y="-277.68"><tspan x="119.01" y="-277.68"/></text><text x="357.74" y="-786.07"><tspan x="357.74" y="-786.07"/></text><text transform="scale(4.0128 .2492)" x="286.23" y="-3503.49"/><text x="939.01" y="-866.06"><tspan x="939.01" y="-866.06"/></text><text transform="scale(4.0128 .2492)" x="431.08" y="-3824.52"/><text x="-132.57" y="-1047.32"><tspan x="-132.57" y="-1047.32"/></text><text transform="scale(4.0128 .2492)" x="164.04" y="-4551.87"/><text x="965.48" y="-1263.79"><tspan x="965.48" y="-1263.79"/></text><text transform="scale(4.0128 .2492)" x="437.68" y="-5420.53"/><text x="1546.75" y="-1343.79"><tspan x="1546.75" y="-1343.79"/></text><text transform="scale(4.0128 .2492)" x="582.53" y="-5741.55"/><text x="1157.63" y="-1816.19"><tspan x="1157.63" y="-1816.19"/></text><text transform="scale(4.0128 .2492)" x="485.56" y="-7637.18"/><text x="1738.89" y="-1896.2"><tspan x="1738.89" y="-1896.2"/></text><text transform="scale(4.0128 .2492)" x="630.41" y="-7958.22"/><text x="-93.91" y="-481.48"><tspan x="-93.91" y="-481.48"/></text><text x="486.98" y="-565.36"><tspan x="486.98" y="-565.36"/></text><text transform="scale(4.0128 .2492)" x="318.44" y="-2617.86"/><text x="1068.25" y="-645.36"><tspan x="1068.25" y="-645.36"/></text><text transform="scale(4.0128 .2492)" x="463.29" y="-2938.9"/><text x="-3.329" y="-826.62"><tspan x="-3.329" y="-826.62"/></text><text transform="scale(4.0128 .2492)" x="196.25" y="-3666.24"/><text x="1094.72" y="-1043.09"><tspan x="1094.72" y="-1043.09"/></text><text transform="scale(4.0128 .2492)" x="469.89" y="-4534.9"/><text x="1675.99" y="-1123.09"><tspan x="1675.99" y="-1123.09"/></text><text transform="scale(4.0128 .2492)" x="614.74" y="-4855.93"/><text x="1286.87" y="-1595.49"><tspan x="1286.87" y="-1595.49"/></text><text transform="scale(4.0128 .2492)" x="517.77" y="-6751.56"/><text x="1868.13" y="-1675.5"><tspan x="1868.13" y="-1675.5"/></text><text transform="scale(4.0128 .2492)" x="662.61" y="-7072.6"/><text x="35.33" y="-260.78"><tspan x="35.33" y="-260.78"/></text><text x="137.68" y="194.35"><tspan x="137.68" y="194.35"/></text><text transform="scale(4.0128 .2492)" x="231.39" y="430.76"/><text x="718.95" y="114.35"><tspan x="718.95" y="114.35"/></text><text transform="scale(4.0128 .2492)" x="376.24" y="109.72"/><text x="-352.63" y="-66.906"><tspan x="-352.63" y="-66.906"/></text><text transform="scale(4.0128 .2492)" x="109.2" y="-617.63"/><text x="745.42" y="-283.38"><tspan x="745.42" y="-283.38"/></text><text transform="scale(4.0128 .2492)" x="382.84" y="-1486.28"/><text x="1326.69" y="-363.38"><tspan x="1326.69" y="-363.38"/></text><text transform="scale(4.0128 .2492)" x="527.69" y="-1807.31"/><text x="937.57" y="-835.78"><tspan x="937.57" y="-835.78"/></text><text transform="scale(4.0128 .2492)" x="430.72" y="-3702.94"/><text x="1518.83" y="-915.79"><tspan x="1518.83" y="-915.79"/></text><text transform="scale(4.0128 .2492)" x="575.57" y="-4023.98"/><text x="-313.97" y="498.93"><tspan x="-313.97" y="498.93"/></text><text x="154.74" y="-421"><tspan x="154.74" y="-421"/></text><text transform="scale(4.0128 .2492)" x="235.64" y="-2038.52"/><text x="736.01" y="-501"><tspan x="736.01" y="-501"/></text><text transform="scale(4.0128 .2492)" x="380.49" y="-2359.56"/><text x="-335.57" y="-682.25"><tspan x="-335.57" y="-682.25"/></text><text transform="scale(4.0128 .2492)" x="113.45" y="-3086.91"/><text x="762.48" y="-898.73"><tspan x="762.48" y="-898.73"/></text><text transform="scale(4.0128 .2492)" x="387.09" y="-3955.56"/><text x="1343.75" y="-978.73"><tspan x="1343.75" y="-978.73"/></text><text transform="scale(4.0128 .2492)" x="531.94" y="-4276.59"/><text x="954.63" y="-1451.13"><tspan x="954.63" y="-1451.13"/></text><text transform="scale(4.0128 .2492)" x="434.97" y="-6172.22"/><text x="1535.89" y="-1531.14"><tspan x="1535.89" y="-1531.14"/></text><text transform="scale(4.0128 .2492)" x="579.82" y="-6493.26"/><text x="-296.91" y="-116.42"><tspan x="-296.91" y="-116.42"/></text><text x="-58.18" y="-624.8"><tspan x="-58.18" y="-624.8"/></text><text transform="scale(4.0128 .2492)" x="182.58" y="-2856.36"/><text x="523.09" y="-704.8"><tspan x="523.09" y="-704.8"/></text><text transform="scale(4.0128 .2492)" x="327.43" y="-3177.39"/><text x="-548.49" y="-886.06"><tspan x="-548.49" y="-886.06"/></text><text transform="scale(4.0128 .2492)" x="60.39" y="-3904.74"/><text x="549.56" y="-1102.53"><tspan x="549.56" y="-1102.53"/></text><text transform="scale(4.0128 .2492)" x="334.03" y="-4773.4"/><text x="1130.83" y="-1182.53"><tspan x="1130.83" y="-1182.53"/></text><text transform="scale(4.0128 .2492)" x="478.88" y="-5094.42"/><text x="741.71" y="-1654.93"><tspan x="741.71" y="-1654.93"/></text><text transform="scale(4.0128 .2492)" x="381.91" y="-6990.06"/><text x="1322.97" y="-1734.94"><tspan x="1322.97" y="-1734.94"/></text><text transform="scale(4.0128 .2492)" x="526.76" y="-7311.09"/><text x="-509.83" y="-320.22"><tspan x="-509.83" y="-320.22"/></text><text x="729.64" y="231.36"><tspan x="729.64" y="231.36"/></text><text transform="scale(4.0128 .2492)" x="378.91" y="579.26"/><text x="1310.91" y="151.36"><tspan x="1310.91" y="151.36"/></text><text transform="scale(4.0128 .2492)" x="523.76" y="258.22"/><text x="239.33" y="-29.9"><tspan x="239.33" y="-29.9"/></text><text transform="scale(4.0128 .2492)" x="256.72" y="-469.13"/><text x="1337.38" y="-246.37"><tspan x="1337.38" y="-246.37"/></text><text transform="scale(4.0128 .2492)" x="530.36" y="-1337.8"/><text x="1918.65" y="-326.37"><tspan x="1918.65" y="-326.37"/></text><text transform="scale(4.0128 .2492)" x="675.21" y="-1658.83"/><text x="1529.53" y="-798.77"><tspan x="1529.53" y="-798.77"/></text><text transform="scale(4.0128 .2492)" x="578.24" y="-3554.48"/><text x="2110.79" y="-878.78"><tspan x="2110.79" y="-878.78"/></text><text transform="scale(4.0128 .2492)" x="723.09" y="-3875.52"/><text x="277.99" y="535.94"><tspan x="277.99" y="535.94"/></text><text x="886.63" y="154.81"><tspan x="886.63" y="154.81"/></text><text transform="scale(4.0128 .2492)" x="418.03" y="272.09"/><text x="1467.9" y="74.81"><tspan x="1467.9" y="74.81"/></text><text transform="scale(4.0128 .2492)" x="562.88" y="-48.947"/><text x="396.32" y="-106.45"><tspan x="396.32" y="-106.45"/></text><text transform="scale(4.0128 .2492)" x="295.84" y="-776.29"/><text x="1494.37" y="-322.92"><tspan x="1494.37" y="-322.92"/></text><text transform="scale(4.0128 .2492)" x="569.48" y="-1644.95"/><text x="2075.64" y="-402.92"><tspan x="2075.64" y="-402.92"/></text><text transform="scale(4.0128 .2492)" x="714.33" y="-1965.98"/><text x="1686.52" y="-875.32"><tspan x="1686.52" y="-875.32"/></text><text transform="scale(4.0128 .2492)" x="617.36" y="-3861.61"/><text x="2267.78" y="-955.33"><tspan x="2267.78" y="-955.33"/></text><text transform="scale(4.0128 .2492)" x="762.21" y="-4182.65"/><text x="434.98" y="459.39"><tspan x="434.98" y="459.39"/></text><text x="137.68" y="194.35"><tspan x="137.68" y="194.35"/></text><text transform="scale(4.0128 .2492)" x="231.39" y="430.76"/><text x="718.95" y="114.35"><tspan x="718.95" y="114.35"/></text><text transform="scale(4.0128 .2492)" x="376.24" y="109.72"/><text x="-352.63" y="-66.906"><tspan x="-352.63" y="-66.906"/></text><text transform="scale(4.0128 .2492)" x="109.2" y="-617.63"/><text x="745.42" y="-283.38"><tspan x="745.42" y="-283.38"/></text><text transform="scale(4.0128 .2492)" x="382.84" y="-1486.28"/><text x="1326.69" y="-363.38"><tspan x="1326.69" y="-363.38"/></text><text transform="scale(4.0128 .2492)" x="527.69" y="-1807.31"/><text x="937.57" y="-835.78"><tspan x="937.57" y="-835.78"/></text><text transform="scale(4.0128 .2492)" x="430.72" y="-3702.94"/><text x="1518.83" y="-915.79"><tspan x="1518.83" y="-915.79"/></text><text transform="scale(4.0128 .2492)" x="575.57" y="-4023.98"/><text x="-313.97" y="498.93"><tspan x="-313.97" y="498.93"/></text><text x="154.74" y="-421"><tspan x="154.74" y="-421"/></text><text transform="scale(4.0128 .2492)" x="235.64" y="-2038.52"/><text x="736.01" y="-501"><tspan x="736.01" y="-501"/></text><text transform="scale(4.0128 .2492)" x="380.49" y="-2359.56"/><text x="-335.57" y="-682.25"><tspan x="-335.57" y="-682.25"/></text><text transform="scale(4.0128 .2492)" x="113.45" y="-3086.91"/><text x="762.48" y="-898.73"><tspan x="762.48" y="-898.73"/></text><text transform="scale(4.0128 .2492)" x="387.09" y="-3955.56"/><text x="1343.75" y="-978.73"><tspan x="1343.75" y="-978.73"/></text><text transform="scale(4.0128 .2492)" x="531.94" y="-4276.59"/><text x="954.63" y="-1451.13"><tspan x="954.63" y="-1451.13"/></text><text transform="scale(4.0128 .2492)" x="434.97" y="-6172.22"/><text x="1535.89" y="-1531.14"><tspan x="1535.89" y="-1531.14"/></text><text transform="scale(4.0128 .2492)" x="579.82" y="-6493.26"/><text x="-296.91" y="-116.42"><tspan x="-296.91" y="-116.42"/></text><text x="-58.18" y="-624.8"><tspan x="-58.18" y="-624.8"/></text><text transform="scale(4.0128 .2492)" x="182.58" y="-2856.36"/><text x="523.09" y="-704.8"><tspan x="523.09" y="-704.8"/></text><text transform="scale(4.0128 .2492)" x="327.43" y="-3177.39"/><text x="-548.49" y="-886.06"><tspan x="-548.49" y="-886.06"/></text><text transform="scale(4.0128 .2492)" x="60.39" y="-3904.74"/><text x="549.56" y="-1102.53"><tspan x="549.56" y="-1102.53"/></text><text transform="scale(4.0128 .2492)" x="334.03" y="-4773.4"/><text x="1130.83" y="-1182.53"><tspan x="1130.83" y="-1182.53"/></text><text transform="scale(4.0128 .2492)" x="478.88" y="-5094.42"/><text x="741.71" y="-1654.93"><tspan x="741.71" y="-1654.93"/></text><text transform="scale(4.0128 .2492)" x="381.91" y="-6990.06"/><text x="1322.97" y="-1734.94"><tspan x="1322.97" y="-1734.94"/></text><text transform="scale(4.0128 .2492)" x="526.76" y="-7311.09"/><text x="-509.83" y="-320.22"><tspan x="-509.83" y="-320.22"/></text><text x="729.64" y="231.36"><tspan x="729.64" y="231.36"/></text><text transform="scale(4.0128 .2492)" x="378.91" y="579.26"/><text x="1310.91" y="151.36"><tspan x="1310.91" y="151.36"/></text><text transform="scale(4.0128 .2492)" x="523.76" y="258.22"/><text x="239.33" y="-29.9"><tspan x="239.33" y="-29.9"/></text><text transform="scale(4.0128 .2492)" x="256.72" y="-469.13"/><text x="1337.38" y="-246.37"><tspan x="1337.38" y="-246.37"/></text><text transform="scale(4.0128 .2492)" x="530.36" y="-1337.8"/><text x="1918.65" y="-326.37"><tspan x="1918.65" y="-326.37"/></text><text transform="scale(4.0128 .2492)" x="675.21" y="-1658.83"/><text x="1529.53" y="-798.77"><tspan x="1529.53" y="-798.77"/></text><text transform="scale(4.0128 .2492)" x="578.24" y="-3554.48"/><text x="2110.79" y="-878.78"><tspan x="2110.79" y="-878.78"/></text><text transform="scale(4.0128 .2492)" x="723.09" y="-3875.52"/><text x="277.99" y="535.94"><tspan x="277.99" y="535.94"/></text><text x="886.63" y="154.81"><tspan x="886.63" y="154.81"/></text><text transform="scale(4.0128 .2492)" x="418.03" y="272.09"/><text x="1467.9" y="74.81"><tspan x="1467.9" y="74.81"/></text><text transform="scale(4.0128 .2492)" x="562.88" y="-48.947"/><text x="396.32" y="-106.45"><tspan x="396.32" y="-106.45"/></text><text transform="scale(4.0128 .2492)" x="295.84" y="-776.29"/><text x="1494.37" y="-322.92"><tspan x="1494.37" y="-322.92"/></text><text transform="scale(4.0128 .2492)" x="569.48" y="-1644.95"/><text x="2075.64" y="-402.92"><tspan x="2075.64" y="-402.92"/></text><text transform="scale(4.0128 .2492)" x="714.33" y="-1965.98"/><text x="1686.52" y="-875.32"><tspan x="1686.52" y="-875.32"/></text><text transform="scale(4.0128 .2492)" x="617.36" y="-3861.61"/><text x="2267.78" y="-955.33"><tspan x="2267.78" y="-955.33"/></text><text transform="scale(4.0128 .2492)" x="762.21" y="-4182.65"/><text x="434.98" y="459.39"><tspan x="434.98" y="459.39"/></text><text x="811.32" y="269.33"><tspan x="811.32" y="269.33"/></text><text transform="scale(4.0128 .2492)" x="399.26" y="731.64"/><text x="1392.59" y="189.33"><tspan x="1392.59" y="189.33"/></text><text transform="scale(4.0128 .2492)" x="544.11" y="410.6"/><text x="321.01" y="8.07"><tspan x="321.01" y="8.07"/></text><text transform="scale(4.0128 .2492)" x="277.07" y="-316.74"/><text x="1419.06" y="-208.4"><tspan x="1419.06" y="-208.4"/></text><text transform="scale(4.0128 .2492)" x="550.71" y="-1185.4"/><text x="2000.33" y="-288.4"><tspan x="2000.33" y="-288.4"/></text><text transform="scale(4.0128 .2492)" x="695.56" y="-1506.43"/><text x="1611.21" y="-760.8"><tspan x="1611.21" y="-760.8"/></text><text transform="scale(4.0128 .2492)" x="598.59" y="-3402.06"/><text x="2192.47" y="-840.81"><tspan x="2192.47" y="-840.81"/></text><text transform="scale(4.0128 .2492)" x="743.44" y="-3723.1"/><text x="359.67" y="573.91"><tspan x="359.67" y="573.91"/></text><text x="759.16" y="192.63"><tspan x="759.16" y="192.63"/></text><text transform="scale(4.0128 .2492)" x="386.26" y="423.85"/><text x="1340.43" y="112.63"><tspan x="1340.43" y="112.63"/></text><text transform="scale(4.0128 .2492)" x="531.11" y="102.81"/><text x="268.85" y="-68.63"><tspan x="268.85" y="-68.63"/></text><text transform="scale(4.0128 .2492)" x="264.07" y="-624.54"/><text x="1366.9" y="-285.1"><tspan x="1366.9" y="-285.1"/></text><text transform="scale(4.0128 .2492)" x="537.71" y="-1493.19"/><text x="1948.17" y="-365.1"><tspan x="1948.17" y="-365.1"/></text><text transform="scale(4.0128 .2492)" x="682.56" y="-1814.22"/><text x="1559.05" y="-837.5"><tspan x="1559.05" y="-837.5"/></text><text transform="scale(4.0128 .2492)" x="585.59" y="-3709.85"/><text x="2140.31" y="-917.51"><tspan x="2140.31" y="-917.51"/></text><text transform="scale(4.0128 .2492)" x="730.44" y="-4030.89"/><text x="307.51" y="497.21"><tspan x="307.51" y="497.21"/></text><text x="776.23" y="-422.72"><tspan x="776.23" y="-422.72"/></text><text transform="scale(4.0128 .2492)" x="390.52" y="-2045.43"/><text x="1357.5" y="-502.72"><tspan x="1357.5" y="-502.72"/></text><text transform="scale(4.0128 .2492)" x="535.36" y="-2366.47"/><text x="285.92" y="-683.98"><tspan x="285.92" y="-683.98"/></text><text transform="scale(4.0128 .2492)" x="268.33" y="-3093.82"/><text x="1383.97" y="-900.45"><tspan x="1383.97" y="-900.45"/></text><text transform="scale(4.0128 .2492)" x="541.96" y="-3962.47"/><text x="1965.24" y="-980.45"><tspan x="1965.24" y="-980.45"/></text><text transform="scale(4.0128 .2492)" x="686.81" y="-4283.5"/><text x="1576.12" y="-1452.85"><tspan x="1576.12" y="-1452.85"/></text><text transform="scale(4.0128 .2492)" x="589.84" y="-6179.13"/><text x="2157.38" y="-1532.86"><tspan x="2157.38" y="-1532.86"/></text><text transform="scale(4.0128 .2492)" x="734.69" y="-6500.17"/><text x="324.58" y="-118.14"><tspan x="324.58" y="-118.14"/></text><text x="563.31" y="-626.52"><tspan x="563.31" y="-626.52"/></text><text transform="scale(4.0128 .2492)" x="337.46" y="-2863.27"/><text x="1144.58" y="-706.52"><tspan x="1144.58" y="-706.52"/></text><text transform="scale(4.0128 .2492)" x="482.3" y="-3184.31"/><text x="72.997" y="-887.78"><tspan x="72.997" y="-887.78"/></text><text transform="scale(4.0128 .2492)" x="215.27" y="-3911.65"/><text x="1171.05" y="-1104.25"><tspan x="1171.05" y="-1104.25"/></text><text transform="scale(4.0128 .2492)" x="488.9" y="-4780.31"/><text x="1752.32" y="-1184.25"><tspan x="1752.32" y="-1184.25"/></text><text transform="scale(4.0128 .2492)" x="633.75" y="-5101.34"/><text x="1363.2" y="-1656.65"><tspan x="1363.2" y="-1656.65"/></text><text transform="scale(4.0128 .2492)" x="536.78" y="-6996.97"/><text x="1944.46" y="-1736.66"><tspan x="1944.46" y="-1736.66"/></text><text transform="scale(4.0128 .2492)" x="681.63" y="-7318.01"/><text x="111.66" y="-321.94"><tspan x="111.66" y="-321.94"/></text><text x="570.66" y="-582.26"><tspan x="570.66" y="-582.26"/></text><text transform="scale(4.0128 .2492)" x="339.29" y="-2685.65"/><text x="1151.93" y="-662.26"><tspan x="1151.93" y="-662.26"/></text><text transform="scale(4.0128 .2492)" x="484.14" y="-3006.69"/><text x="80.35" y="-843.52"><tspan x="80.35" y="-843.52"/></text><text transform="scale(4.0128 .2492)" x="217.1" y="-3734.03"/><text x="1178.4" y="-1059.99"><tspan x="1178.4" y="-1059.99"/></text><text transform="scale(4.0128 .2492)" x="490.74" y="-4602.69"/><text x="1759.67" y="-1139.99"><tspan x="1759.67" y="-1139.99"/></text><text transform="scale(4.0128 .2492)" x="635.59" y="-4923.72"/><text x="1370.55" y="-1612.39"><tspan x="1370.55" y="-1612.39"/></text><text transform="scale(4.0128 .2492)" x="538.62" y="-6819.35"/><text x="1951.81" y="-1692.4"><tspan x="1951.81" y="-1692.4"/></text><text transform="scale(4.0128 .2492)" x="683.47" y="-7140.39"/><text x="119.01" y="-277.68"><tspan x="119.01" y="-277.68"/></text><text x="357.74" y="-786.07"><tspan x="357.74" y="-786.07"/></text><text transform="scale(4.0128 .2492)" x="286.23" y="-3503.49"/><text x="939.01" y="-866.06"><tspan x="939.01" y="-866.06"/></text><text transform="scale(4.0128 .2492)" x="431.08" y="-3824.52"/><text x="-132.57" y="-1047.32"><tspan x="-132.57" y="-1047.32"/></text><text transform="scale(4.0128 .2492)" x="164.04" y="-4551.87"/><text x="965.48" y="-1263.79"><tspan x="965.48" y="-1263.79"/></text><text transform="scale(4.0128 .2492)" x="437.68" y="-5420.53"/><text x="1546.75" y="-1343.79"><tspan x="1546.75" y="-1343.79"/></text><text transform="scale(4.0128 .2492)" x="582.53" y="-5741.55"/><text x="1157.63" y="-1816.19"><tspan x="1157.63" y="-1816.19"/></text><text transform="scale(4.0128 .2492)" x="485.56" y="-7637.18"/><text x="1738.89" y="-1896.2"><tspan x="1738.89" y="-1896.2"/></text><text transform="scale(4.0128 .2492)" x="630.41" y="-7958.22"/><text x="-93.91" y="-481.48"><tspan x="-93.91" y="-481.48"/></text><text x="486.98" y="-565.36"><tspan x="486.98" y="-565.36"/></text><text transform="scale(4.0128 .2492)" x="318.44" y="-2617.86"/><text x="1068.25" y="-645.36"><tspan x="1068.25" y="-645.36"/></text><text transform="scale(4.0128 .2492)" x="463.29" y="-2938.9"/><text x="-3.329" y="-826.62"><tspan x="-3.329" y="-826.62"/></text><text transform="scale(4.0128 .2492)" x="196.25" y="-3666.24"/><text x="1094.72" y="-1043.09"><tspan x="1094.72" y="-1043.09"/></text><text transform="scale(4.0128 .2492)" x="469.89" y="-4534.9"/><text x="1675.99" y="-1123.09"><tspan x="1675.99" y="-1123.09"/></text><text transform="scale(4.0128 .2492)" x="614.74" y="-4855.93"/><text x="1286.87" y="-1595.49"><tspan x="1286.87" y="-1595.49"/></text><text transform="scale(4.0128 .2492)" x="517.77" y="-6751.56"/><text x="1868.13" y="-1675.5"><tspan x="1868.13" y="-1675.5"/></text><text transform="scale(4.0128 .2492)" x="662.61" y="-7072.6"/><text x="35.33" y="-260.78"><tspan x="35.33" y="-260.78"/></text><text x="137.68" y="194.35"><tspan x="137.68" y="194.35"/></text><text transform="scale(4.0128 .2492)" x="231.39" y="430.76"/><text x="718.95" y="114.35"><tspan x="718.95" y="114.35"/></text><text transform="scale(4.0128 .2492)" x="376.24" y="109.72"/><text x="-352.63" y="-66.906"><tspan x="-352.63" y="-66.906"/></text><text transform="scale(4.0128 .2492)" x="109.2" y="-617.63"/><text x="745.42" y="-283.38"><tspan x="745.42" y="-283.38"/></text><text transform="scale(4.0128 .2492)" x="382.84" y="-1486.28"/><text x="1326.69" y="-363.38"><tspan x="1326.69" y="-363.38"/></text><text transform="scale(4.0128 .2492)" x="527.69" y="-1807.31"/><text x="937.57" y="-835.78"><tspan x="937.57" y="-835.78"/></text><text transform="scale(4.0128 .2492)" x="430.72" y="-3702.94"/><text x="1518.83" y="-915.79"><tspan x="1518.83" y="-915.79"/></text><text transform="scale(4.0128 .2492)" x="575.57" y="-4023.98"/><text x="-313.97" y="498.93"><tspan x="-313.97" y="498.93"/></text><text x="154.74" y="-421"><tspan x="154.74" y="-421"/></text><text transform="scale(4.0128 .2492)" x="235.64" y="-2038.52"/><text x="736.01" y="-501"><tspan x="736.01" y="-501"/></text><text transform="scale(4.0128 .2492)" x="380.49" y="-2359.56"/><text x="-335.57" y="-682.25"><tspan x="-335.57" y="-682.25"/></text><text transform="scale(4.0128 .2492)" x="113.45" y="-3086.91"/><text x="762.48" y="-898.73"><tspan x="762.48" y="-898.73"/></text><text transform="scale(4.0128 .2492)" x="387.09" y="-3955.56"/><text x="1343.75" y="-978.73"><tspan x="1343.75" y="-978.73"/></text><text transform="scale(4.0128 .2492)" x="531.94" y="-4276.59"/><text x="954.63" y="-1451.13"><tspan x="954.63" y="-1451.13"/></text><text transform="scale(4.0128 .2492)" x="434.97" y="-6172.22"/><text x="1535.89" y="-1531.14"><tspan x="1535.89" y="-1531.14"/></text><text transform="scale(4.0128 .2492)" x="579.82" y="-6493.26"/><text x="-296.91" y="-116.42"><tspan x="-296.91" y="-116.42"/></text><text x="-58.18" y="-624.8"><tspan x="-58.18" y="-624.8"/></text><text transform="scale(4.0128 .2492)" x="182.58" y="-2856.36"/><text x="523.09" y="-704.8"><tspan x="523.09" y="-704.8"/></text><text transform="scale(4.0128 .2492)" x="327.43" y="-3177.39"/><text x="-548.49" y="-886.06"><tspan x="-548.49" y="-886.06"/></text><text transform="scale(4.0128 .2492)" x="60.39" y="-3904.74"/><text x="549.56" y="-1102.53"><tspan x="549.56" y="-1102.53"/></text><text transform="scale(4.0128 .2492)" x="334.03" y="-4773.4"/><text x="1130.83" y="-1182.53"><tspan x="1130.83" y="-1182.53"/></text><text transform="scale(4.0128 .2492)" x="478.88" y="-5094.42"/><text x="741.71" y="-1654.93"><tspan x="741.71" y="-1654.93"/></text><text transform="scale(4.0128 .2492)" x="381.91" y="-6990.06"/><text x="1322.97" y="-1734.94"><tspan x="1322.97" y="-1734.94"/></text><text transform="scale(4.0128 .2492)" x="526.76" y="-7311.09"/><text x="-509.83" y="-320.22"><tspan x="-509.83" y="-320.22"/></text><text x="729.64" y="231.36"><tspan x="729.64" y="231.36"/></text><text transform="scale(4.0128 .2492)" x="378.91" y="579.26"/><text x="1310.91" y="151.36"><tspan x="1310.91" y="151.36"/></text><text transform="scale(4.0128 .2492)" x="523.76" y="258.22"/><text x="239.33" y="-29.9"><tspan x="239.33" y="-29.9"/></text><text transform="scale(4.0128 .2492)" x="256.72" y="-469.13"/><text x="1337.38" y="-246.37"><tspan x="1337.38" y="-246.37"/></text><text transform="scale(4.0128 .2492)" x="530.36" y="-1337.8"/><text x="1918.65" y="-326.37"><tspan x="1918.65" y="-326.37"/></text><text transform="scale(4.0128 .2492)" x="675.21" y="-1658.83"/><text x="1529.53" y="-798.77"><tspan x="1529.53" y="-798.77"/></text><text transform="scale(4.0128 .2492)" x="578.24" y="-3554.48"/><text x="2110.79" y="-878.78"><tspan x="2110.79" y="-878.78"/></text><text transform="scale(4.0128 .2492)" x="723.09" y="-3875.52"/><text x="277.99" y="535.94"><tspan x="277.99" y="535.94"/></text><text x="886.63" y="154.81"><tspan x="886.63" y="154.81"/></text><text transform="scale(4.0128 .2492)" x="418.03" y="272.09"/><text x="1467.9" y="74.81"><tspan x="1467.9" y="74.81"/></text><text transform="scale(4.0128 .2492)" x="562.88" y="-48.947"/><text x="396.32" y="-106.45"><tspan x="396.32" y="-106.45"/></text><text transform="scale(4.0128 .2492)" x="295.84" y="-776.29"/><text x="1494.37" y="-322.92"><tspan x="1494.37" y="-322.92"/></text><text transform="scale(4.0128 .2492)" x="569.48" y="-1644.95"/><text x="2075.64" y="-402.92"><tspan x="2075.64" y="-402.92"/></text><text transform="scale(4.0128 .2492)" x="714.33" y="-1965.98"/><text x="1686.52" y="-875.32"><tspan x="1686.52" y="-875.32"/></text><text transform="scale(4.0128 .2492)" x="617.36" y="-3861.61"/><text x="2267.78" y="-955.33"><tspan x="2267.78" y="-955.33"/></text><text transform="scale(4.0128 .2492)" x="762.21" y="-4182.65"/><text x="434.98" y="459.39"><tspan x="434.98" y="459.39"/></text><text x="860.12" y="207.37"><tspan x="860.12" y="207.37"/></text><text transform="scale(4.0128 .2492)" x="411.42" y="482.99"/><text x="1441.39" y="127.37"><tspan x="1441.39" y="127.37"/></text><text transform="scale(4.0128 .2492)" x="556.27" y="161.95"/><text x="369.81" y="-53.889"><tspan x="369.81" y="-53.889"/></text><text transform="scale(4.0128 .2492)" x="289.23" y="-565.39"/><text x="1467.86" y="-270.36"><tspan x="1467.86" y="-270.36"/></text><text transform="scale(4.0128 .2492)" x="562.87" y="-1434.05"/><text x="2049.13" y="-350.36"><tspan x="2049.13" y="-350.36"/></text><text transform="scale(4.0128 .2492)" x="707.72" y="-1755.08"/><text x="1660.01" y="-822.76"><tspan x="1660.01" y="-822.76"/></text><text transform="scale(4.0128 .2492)" x="610.75" y="-3650.71"/><text x="2241.27" y="-902.77"><tspan x="2241.27" y="-902.77"/></text><text transform="scale(4.0128 .2492)" x="755.6" y="-3971.74"/><text x="408.47" y="511.95"><tspan x="408.47" y="511.95"/></text><text x="877.18" y="-407.98"><tspan x="877.18" y="-407.98"/></text><text transform="scale(4.0128 .2492)" x="415.67" y="-1986.29"/><text x="1458.45" y="-487.98"><tspan x="1458.45" y="-487.98"/></text><text transform="scale(4.0128 .2492)" x="560.52" y="-2307.32"/><text x="386.87" y="-669.24"><tspan x="386.87" y="-669.24"/></text><text transform="scale(4.0128 .2492)" x="293.48" y="-3034.67"/><text x="1484.92" y="-885.71"><tspan x="1484.92" y="-885.71"/></text><text transform="scale(4.0128 .2492)" x="567.12" y="-3903.33"/><text x="2066.19" y="-965.71"><tspan x="2066.19" y="-965.71"/></text><text transform="scale(4.0128 .2492)" x="711.97" y="-4224.35"/><text x="1677.07" y="-1438.11"><tspan x="1677.07" y="-1438.11"/></text><text transform="scale(4.0128 .2492)" x="615" y="-6119.98"/><text x="2258.33" y="-1518.12"><tspan x="2258.33" y="-1518.12"/></text><text transform="scale(4.0128 .2492)" x="759.85" y="-6441.02"/><text x="425.53" y="-103.4"><tspan x="425.53" y="-103.4"/></text><text x="664.26" y="-611.78"><tspan x="664.26" y="-611.78"/></text><text transform="scale(4.0128 .2492)" x="362.61" y="-2804.12"/><text x="1245.53" y="-691.78"><tspan x="1245.53" y="-691.78"/></text><text transform="scale(4.0128 .2492)" x="507.46" y="-3125.16"/><text x="173.95" y="-873.04"><tspan x="173.95" y="-873.04"/></text><text transform="scale(4.0128 .2492)" x="240.42" y="-3852.51"/><text x="1272" y="-1089.51"><tspan x="1272" y="-1089.51"/></text><text transform="scale(4.0128 .2492)" x="514.06" y="-4721.16"/><text x="1853.27" y="-1169.51"><tspan x="1853.27" y="-1169.51"/></text><text transform="scale(4.0128 .2492)" x="658.91" y="-5042.19"/><text x="1464.15" y="-1641.91"><tspan x="1464.15" y="-1641.91"/></text><text transform="scale(4.0128 .2492)" x="561.94" y="-6937.82"/><text x="2045.41" y="-1721.92"><tspan x="2045.41" y="-1721.92"/></text><text transform="scale(4.0128 .2492)" x="706.79" y="-7258.86"/><text x="212.61" y="-307.2"><tspan x="212.61" y="-307.2"/></text><text x="671.62" y="-567.52"><tspan x="671.62" y="-567.52"/></text><text transform="scale(4.0128 .2492)" x="364.45" y="-2626.5"/><text x="1252.89" y="-647.52"><tspan x="1252.89" y="-647.52"/></text><text transform="scale(4.0128 .2492)" x="509.3" y="-2947.54"/><text x="181.31" y="-828.78"><tspan x="181.31" y="-828.78"/></text><text transform="scale(4.0128 .2492)" x="242.26" y="-3674.89"/><text x="1279.36" y="-1045.25"><tspan x="1279.36" y="-1045.25"/></text><text transform="scale(4.0128 .2492)" x="515.9" y="-4543.54"/><text x="1860.63" y="-1125.25"><tspan x="1860.63" y="-1125.25"/></text><text transform="scale(4.0128 .2492)" x="660.75" y="-4864.57"/><text x="1471.51" y="-1597.65"><tspan x="1471.51" y="-1597.65"/></text><text transform="scale(4.0128 .2492)" x="563.78" y="-6760.2"/><text x="2052.77" y="-1677.66"><tspan x="2052.77" y="-1677.66"/></text><text transform="scale(4.0128 .2492)" x="708.63" y="-7081.24"/><text x="219.97" y="-262.94"><tspan x="219.97" y="-262.94"/></text><text x="458.7" y="-771.33"><tspan x="458.7" y="-771.33"/></text><text transform="scale(4.0128 .2492)" x="311.39" y="-3444.34"/><text x="1039.97" y="-851.32"><tspan x="1039.97" y="-851.32"/></text><text transform="scale(4.0128 .2492)" x="456.24" y="-3765.38"/><text x="-31.612" y="-1032.58"><tspan x="-31.612" y="-1032.58"/></text><text transform="scale(4.0128 .2492)" x="189.2" y="-4492.72"/><text x="1066.44" y="-1249.05"><tspan x="1066.44" y="-1249.05"/></text><text transform="scale(4.0128 .2492)" x="462.84" y="-5361.38"/><text x="1647.71" y="-1329.05"><tspan x="1647.71" y="-1329.05"/></text><text transform="scale(4.0128 .2492)" x="607.69" y="-5682.41"/><text x="1258.59" y="-1801.45"><tspan x="1258.59" y="-1801.45"/></text><text transform="scale(4.0128 .2492)" x="510.72" y="-7578.04"/><text x="1839.85" y="-1881.46"><tspan x="1839.85" y="-1881.46"/></text><text transform="scale(4.0128 .2492)" x="655.57" y="-7899.08"/><text x="7.05" y="-466.74"><tspan x="7.05" y="-466.74"/></text><text x="587.93" y="-550.62"><tspan x="587.93" y="-550.62"/></text><text transform="scale(4.0128 .2492)" x="343.6" y="-2558.71"/><text x="1169.21" y="-630.62"><tspan x="1169.21" y="-630.62"/></text><text transform="scale(4.0128 .2492)" x="488.45" y="-2879.75"/><text x="97.63" y="-811.88"><tspan x="97.63" y="-811.88"/></text><text transform="scale(4.0128 .2492)" x="221.41" y="-3607.1"/><text x="1195.68" y="-1028.35"><tspan x="1195.68" y="-1028.35"/></text><text transform="scale(4.0128 .2492)" x="495.05" y="-4475.75"/><text x="1776.95" y="-1108.35"><tspan x="1776.95" y="-1108.35"/></text><text transform="scale(4.0128 .2492)" x="639.9" y="-4796.78"/><text x="1387.83" y="-1580.75"><tspan x="1387.83" y="-1580.75"/></text><text transform="scale(4.0128 .2492)" x="542.93" y="-6692.41"/><text x="1969.09" y="-1660.76"><tspan x="1969.09" y="-1660.76"/></text><text transform="scale(4.0128 .2492)" x="687.77" y="-7013.45"/><text x="136.29" y="-246.04"><tspan x="136.29" y="-246.04"/></text><text x="729.64" y="231.36"><tspan x="729.64" y="231.36"/></text><text transform="scale(4.0128 .2492)" x="378.91" y="579.26"/><text x="1310.91" y="151.36"><tspan x="1310.91" y="151.36"/></text><text transform="scale(4.0128 .2492)" x="523.76" y="258.22"/><text x="239.33" y="-29.9"><tspan x="239.33" y="-29.9"/></text><text transform="scale(4.0128 .2492)" x="256.72" y="-469.13"/><text x="1337.38" y="-246.37"><tspan x="1337.38" y="-246.37"/></text><text transform="scale(4.0128 .2492)" x="530.36" y="-1337.8"/><text x="1918.65" y="-326.37"><tspan x="1918.65" y="-326.37"/></text><text transform="scale(4.0128 .2492)" x="675.21" y="-1658.83"/><text x="1529.53" y="-798.77"><tspan x="1529.53" y="-798.77"/></text><text transform="scale(4.0128 .2492)" x="578.24" y="-3554.48"/><text x="2110.79" y="-878.78"><tspan x="2110.79" y="-878.78"/></text><text transform="scale(4.0128 .2492)" x="723.09" y="-3875.52"/><text x="277.99" y="535.94"><tspan x="277.99" y="535.94"/></text><g fill-rule="evenodd"><path d="m471.95 253.05c0 120.9-98.01 218.91-218.91 218.91s-218.91-98.01-218.91-218.91 98.01-218.91 218.91-218.91 218.91 98.01 218.91 218.91" fill="#cd1d31"/><path d="m256 1c-140.83 0-255 114.17-255 255s114.17 255 255 255 255-114.17 255-255-114.17-255-255-255m8.827 44.931c120.9 0 218.9 98 218.9 218.9s-98 218.9-218.9 218.9-218.93-98-218.93-218.9 98.03-218.9 218.93-218.9" fill-opacity=".067"/><g fill-opacity=".129"><path d="m256 4.43c-138.94 0-251.57 112.63-251.57 251.57s112.63 251.57 251.57 251.57 251.57-112.63 251.57-251.57-112.63-251.57-251.57-251.57m5.885 38.556c120.9 0 218.9 98 218.9 218.9s-98 218.9-218.9 218.9-218.93-98-218.93-218.9 98.03-218.9 218.93-218.9"/><path d="m256 8.36c-136.77 0-247.64 110.87-247.64 247.64s110.87 247.64 247.64 247.64 247.64-110.87 247.64-247.64-110.87-247.64-247.64-247.64m2.942 31.691c120.9 0 218.9 98 218.9 218.9s-98 218.9-218.9 218.9-218.93-98-218.93-218.9 98.03-218.9 218.93-218.9"/></g><path d="m253.04 7.86c-135.42 0-245.19 109.78-245.19 245.19 0 135.42 109.78 245.19 245.19 245.19 135.42 0 245.19-109.78 245.19-245.19 0-135.42-109.78-245.19-245.19-245.19m0 26.297c120.9 0 218.9 98 218.9 218.9s-98 218.9-218.9 218.9-218.93-98-218.93-218.9 98.03-218.9 218.93-218.9z" fill="#fff" stroke="#000" stroke-opacity=".31" stroke-width="4.904"/></g><text x="729.64" y="231.36"><tspan x="729.64" y="231.36"/></text><text transform="scale(4.0128 .2492)" x="378.91" y="579.26"/><text x="1310.91" y="151.36"><tspan x="1310.91" y="151.36"/></text><text transform="scale(4.0128 .2492)" x="523.76" y="258.22"/><text x="239.33" y="-29.9"><tspan x="239.33" y="-29.9"/></text><text transform="scale(4.0128 .2492)" x="256.72" y="-469.13"/><text x="1337.38" y="-246.37"><tspan x="1337.38" y="-246.37"/></text><text transform="scale(4.0128 .2492)" x="530.36" y="-1337.8"/><text x="1918.65" y="-326.37"><tspan x="1918.65" y="-326.37"/></text><text transform="scale(4.0128 .2492)" x="675.21" y="-1658.83"/><text x="1529.53" y="-798.77"><tspan x="1529.53" y="-798.77"/></text><text transform="scale(4.0128 .2492)" x="578.24" y="-3554.48"/><text x="2110.79" y="-878.78"><tspan x="2110.79" y="-878.78"/></text><text transform="scale(4.0128 .2492)" x="723.09" y="-3875.52"/><text x="277.99" y="535.94"><tspan x="277.99" y="535.94"/></text><text x="963.97" y="259.22"><tspan x="963.97" y="259.22"/></text><text transform="scale(4.0128 .2492)" x="437.31" y="691.05"/><text x="1545.24" y="179.22"><tspan x="1545.24" y="179.22"/></text><text transform="scale(4.0128 .2492)" x="582.15" y="370.01"/><text x="473.66" y="-2.04"><tspan x="473.66" y="-2.04"/></text><text transform="scale(4.0128 .2492)" x="315.12" y="-357.32"/><text x="1571.71" y="-218.51"><tspan x="1571.71" y="-218.51"/></text><text transform="scale(4.0128 .2492)" x="588.75" y="-1225.99"/><text x="2152.98" y="-298.51"><tspan x="2152.98" y="-298.51"/></text><text transform="scale(4.0128 .2492)" x="733.6" y="-1547.02"/><text x="1763.86" y="-770.91"><tspan x="1763.86" y="-770.91"/></text><text transform="scale(4.0128 .2492)" x="636.63" y="-3442.65"/><text x="2345.12" y="-850.92"><tspan x="2345.12" y="-850.92"/></text><text transform="scale(4.0128 .2492)" x="781.48" y="-3763.68"/><g transform="translate(768 43.39)"><text x="-255.68" y="520.41"><tspan x="-255.68" y="520.41"/></text><text x="-139.98" y="156"><tspan x="-139.98" y="156"/></text></g><text transform="scale(4.0128 .2492)" x="353.59" y="450.96"/><text x="1209.29" y="119.39"><tspan x="1209.29" y="119.39"/></text><text transform="scale(4.0128 .2492)" x="498.44" y="129.94"/><text x="137.71" y="-61.87"><tspan x="137.71" y="-61.87"/></text><text transform="scale(4.0128 .2492)" x="231.4" y="-597.41"/><text x="1235.76" y="-278.34"><tspan x="1235.76" y="-278.34"/></text><text transform="scale(4.0128 .2492)" x="505.03" y="-1466.08"/><text x="1817.03" y="-358.35"><tspan x="1817.03" y="-358.35"/></text><text transform="scale(4.0128 .2492)" x="649.87" y="-1787.11"/><text x="1427.91" y="-830.75"><tspan x="1427.91" y="-830.75"/></text><text transform="scale(4.0128 .2492)" x="552.91" y="-3682.75"/><text x="2009.17" y="-910.75"><tspan x="2009.17" y="-910.75"/></text><text transform="scale(4.0128 .2492)" x="697.75" y="-4003.78"/><text x="176.37" y="503.97"><tspan x="176.37" y="503.97"/></text><text x="870.4" y="251.55"><tspan x="870.4" y="251.55"/></text><text transform="scale(4.0128 .2492)" x="413.99" y="660.27"/><text x="1451.67" y="171.55"><tspan x="1451.67" y="171.55"/></text><text transform="scale(4.0128 .2492)" x="558.83" y="339.23"/><text x="380.09" y="-9.71"><tspan x="380.09" y="-9.71"/></text><text transform="scale(4.0128 .2492)" x="291.8" y="-388.1"/><text x="1478.14" y="-226.18"><tspan x="1478.14" y="-226.18"/></text><text transform="scale(4.0128 .2492)" x="565.43" y="-1256.77"/><text x="2059.41" y="-306.18"><tspan x="2059.41" y="-306.18"/></text><text transform="scale(4.0128 .2492)" x="710.28" y="-1577.8"/><text x="1670.29" y="-778.58"><tspan x="1670.29" y="-778.58"/></text><text transform="scale(4.0128 .2492)" x="613.31" y="-3473.43"/><text x="2251.55" y="-858.59"><tspan x="2251.55" y="-858.59"/></text><text transform="scale(4.0128 .2492)" x="758.16" y="-3794.45"/><g transform="translate(140.76 20.19)"><text x="277.99" y="535.94"><tspan x="277.99" y="535.94"/></text><text x="-27128.09" y="1385.19"><tspan x="-27128.09" y="1385.19"/></text></g><text transform="scale(4.0128 .2492)" x="669.02" y="-7460.4"/><text x="-27122.08" y="2317.44"><tspan x="-27122.08" y="2317.44"/></text><text transform="scale(4.0128 .2492)" x="635.48" y="-3800.57"/><g fill="#555753" transform="matrix(23.273 0 0 23.273 140.76 20.19)"><text transform="scale(1.05082 .95163)" x="-549.96" y="-204.06"><tspan x="-549.96" y="-204.06"/></text><text transform="scale(4.21679 .23715)" x="57.981" y="-1164.37"/><text transform="scale(1.05082 .95163)" x="-145.93" y="-239.51"><tspan x="-145.93" y="-239.51"/></text><text transform="scale(4.21679 .23715)" x="68.04" y="-1146.06"/><text x="-1695.66" y="-74.27"><tspan x="-1695.66" y="-74.27"/></text><text transform="scale(4.0128 .2492)" x="-117.54" y="-838.39"/></g><g transform="matrix(23.273 0 0 23.273 140.76 20.19)"><text stroke="#cd1d31" x="-1086.23" y="-599.63"><tspan x="-1086.23" y="-599.63"/></text><text transform="scale(4.0128 .2492)" x="47.04" y="-2969.12"/><text stroke="#cd1d31" x="-1092.03" y="-560.44"><tspan x="-1092.03" y="-560.44"/></text><text transform="scale(4.0128 .2492)" x="45.593" y="-2811.85"/><g fill="#555753"><g stroke="#cd1d31"><text transform="scale(1.05082 .95163)" x="-474.37" y="-896.71"><tspan x="-474.37" y="-896.71"/></text><text transform="scale(4.21679 .23715)" x="76.82" y="-3943.87"/><text transform="scale(1.05082 .95163)" x="-70.35" y="-932.16"><tspan x="-70.35" y="-932.16"/></text><text transform="scale(4.21679 .23715)" x="86.87" y="-3925.56"/><text x="-1616.23" y="-733.42"><tspan x="-1616.23" y="-733.42"/></text></g><text transform="scale(4.0128 .2492)" x="-97.75" y="-3483.46"/></g><text stroke="#cd1d31" x="-356.8" y="-887.07"><tspan x="-356.8" y="-887.07"/></text><text transform="scale(4.0128 .2492)" x="216.1" y="-4100.03"/><text stroke="#cd1d31" x="542.82" y="-1010.89"><tspan x="542.82" y="-1010.89"/></text><text transform="scale(4.0128 .2492)" x="440.29" y="-4596.89"/></g><text x="2862.93" y="387.2"><tspan x="2862.93" y="387.2"/></text><text transform="scale(4.0128 .2492)" x="910.52" y="1204.59"/><text x="3444.19" y="307.2"><tspan x="3444.19" y="307.2"/></text><text transform="scale(4.0128 .2492)" x="1055.37" y="883.55"/><text x="2372.62" y="125.94"><tspan x="2372.62" y="125.94"/></text><text transform="scale(4.0128 .2492)" x="788.34" y="156.21"/><text x="3470.67" y="-90.53"><tspan x="3470.67" y="-90.53"/></text><text transform="scale(4.0128 .2492)" x="1061.97" y="-712.46"/><text x="4051.93" y="-170.54"><tspan x="4051.93" y="-170.54"/></text><text transform="scale(4.0128 .2492)" x="1206.82" y="-1033.5"/><text x="3662.81" y="-642.94"><tspan x="3662.81" y="-642.94"/></text><text transform="scale(4.0128 .2492)" x="1109.85" y="-2929.15"/><text x="4244.08" y="-722.94"><tspan x="4244.08" y="-722.94"/></text><text transform="scale(4.0128 .2492)" x="1254.71" y="-3250.19"/><text x="2411.27" y="691.78"><tspan x="2411.27" y="691.78"/></text><text x="2296.01" y="248.72"><tspan x="2296.01" y="248.72"/></text><text transform="scale(4.0128 .2492)" x="769.25" y="648.89"/><text x="2877.28" y="168.72"><tspan x="2877.28" y="168.72"/></text><text transform="scale(4.0128 .2492)" x="914.1" y="327.86"/><text x="1805.7" y="-12.545"><tspan x="1805.7" y="-12.545"/></text><text transform="scale(4.0128 .2492)" x="647.06" y="-399.49"/><text x="2903.75" y="-229.01"><tspan x="2903.75" y="-229.01"/></text><text transform="scale(4.0128 .2492)" x="920.7" y="-1268.15"/><text x="3485.02" y="-309.02"><tspan x="3485.02" y="-309.02"/></text><text transform="scale(4.0128 .2492)" x="1065.55" y="-1589.19"/><text x="3095.9" y="-781.42"><tspan x="3095.9" y="-781.42"/></text><text transform="scale(4.0128 .2492)" x="968.58" y="-3484.83"/><text x="3677.16" y="-861.42"><tspan x="3677.16" y="-861.42"/></text><text transform="scale(4.0128 .2492)" x="1113.43" y="-3805.85"/><g transform="translate(1566.4 17.356)"><text x="277.99" y="535.94"><tspan x="277.99" y="535.94"/></text><text x="-27646.87" y="1125.07"><tspan x="-27646.87" y="1125.07"/></text></g><text transform="scale(4.0128 .2492)" x="894.67" y="-8515.01"/><text x="-26215.24" y="2054.45"><tspan x="-26215.24" y="2054.45"/></text><text transform="scale(4.0128 .2492)" x="861.13" y="-4855.35"/><g fill="#555753" transform="matrix(23.272 0 0 23.272 1046.4 -242.7)"><text transform="scale(1.05082 .95163)" x="-549.96" y="-204.06"><tspan x="-549.96" y="-204.06"/></text><text transform="scale(4.21679 .23715)" x="57.981" y="-1164.37"/><text transform="scale(1.05082 .95163)" x="-145.93" y="-239.51"><tspan x="-145.93" y="-239.51"/></text><text transform="scale(4.21679 .23715)" x="68.04" y="-1146.06"/><text x="-1695.66" y="-74.27"><tspan x="-1695.66" y="-74.27"/></text><text transform="scale(4.0128 .2492)" x="-117.54" y="-838.39"/></g><g transform="matrix(23.272 0 0 23.272 1046.4 -242.7)"><text stroke="#cd1d31" x="-1086.23" y="-599.63"><tspan x="-1086.23" y="-599.63"/></text><text transform="scale(4.0128 .2492)" x="47.04" y="-2969.12"/><text stroke="#cd1d31" x="-1092.03" y="-560.44"><tspan x="-1092.03" y="-560.44"/></text><text transform="scale(4.0128 .2492)" x="45.593" y="-2811.85"/><g fill="#555753"><g stroke="#cd1d31"><text transform="scale(1.05082 .95163)" x="-474.37" y="-896.71"><tspan x="-474.37" y="-896.71"/></text><text transform="scale(4.21679 .23715)" x="76.82" y="-3943.87"/><text transform="scale(1.05082 .95163)" x="-70.35" y="-932.16"><tspan x="-70.35" y="-932.16"/></text><text transform="scale(4.21679 .23715)" x="86.87" y="-3925.56"/><text x="-1616.23" y="-733.42"><tspan x="-1616.23" y="-733.42"/></text></g><text transform="scale(4.0128 .2492)" x="-97.75" y="-3483.46"/></g><text stroke="#cd1d31" x="-356.8" y="-887.07"><tspan x="-356.8" y="-887.07"/></text><text transform="scale(4.0128 .2492)" x="216.1" y="-4100.03"/><text stroke="#cd1d31" x="542.82" y="-1010.89"><tspan x="542.82" y="-1010.89"/></text><text transform="scale(4.0128 .2492)" x="440.29" y="-4596.89"/></g><text x="1081.31" y="284.67"><tspan x="1081.31" y="284.67"/></text><text transform="scale(4.0128 .2492)" x="466.55" y="793.2"/><text x="1662.58" y="204.67"><tspan x="1662.58" y="204.67"/></text><text transform="scale(4.0128 .2492)" x="611.4" y="472.16"/><text x="591" y="23.414"><tspan x="591" y="23.414"/></text><text transform="scale(4.0128 .2492)" x="344.36" y="-255.18"/><text x="1689.05" y="-193.06"><tspan x="1689.05" y="-193.06"/></text><text transform="scale(4.0128 .2492)" x="618" y="-1123.84"/><text x="2270.32" y="-273.06"><tspan x="2270.32" y="-273.06"/></text><text transform="scale(4.0128 .2492)" x="762.85" y="-1444.87"/><text x="1881.2" y="-745.46"><tspan x="1881.2" y="-745.46"/></text><text transform="scale(4.0128 .2492)" x="665.88" y="-3340.5"/><text x="2462.46" y="-825.47"><tspan x="2462.46" y="-825.47"/></text><text transform="scale(4.0128 .2492)" x="810.73" y="-3661.54"/><g transform="translate(885.34 68.844)"><text x="-255.68" y="520.41"><tspan x="-255.68" y="520.41"/></text><text x="-139.98" y="156"><tspan x="-139.98" y="156"/></text></g><text transform="scale(4.0128 .2492)" x="382.83" y="553.11"/><text x="1326.63" y="144.84"><tspan x="1326.63" y="144.84"/></text><text transform="scale(4.0128 .2492)" x="527.68" y="232.08"/><text x="255.05" y="-36.416"><tspan x="255.05" y="-36.416"/></text><text transform="scale(4.0128 .2492)" x="260.64" y="-495.27"/><text x="1353.1" y="-252.89"><tspan x="1353.1" y="-252.89"/></text><text transform="scale(4.0128 .2492)" x="534.28" y="-1363.93"/><text x="1934.37" y="-332.9"><tspan x="1934.37" y="-332.9"/></text><text transform="scale(4.0128 .2492)" x="679.12" y="-1684.97"/><text x="1545.25" y="-805.3"><tspan x="1545.25" y="-805.3"/></text><text transform="scale(4.0128 .2492)" x="582.16" y="-3580.61"/><text x="2126.51" y="-885.3"><tspan x="2126.51" y="-885.3"/></text><text transform="scale(4.0128 .2492)" x="727" y="-3901.64"/><text x="293.71" y="529.42"><tspan x="293.71" y="529.42"/></text><text x="987.74" y="277"><tspan x="987.74" y="277"/></text><text transform="scale(4.0128 .2492)" x="443.23" y="762.42"/><text x="1569.01" y="197"><tspan x="1569.01" y="197"/></text><text transform="scale(4.0128 .2492)" x="588.08" y="441.38"/><text x="497.43" y="15.744"><tspan x="497.43" y="15.744"/></text><text transform="scale(4.0128 .2492)" x="321.04" y="-285.96"/><text x="1595.48" y="-200.73"><tspan x="1595.48" y="-200.73"/></text><text transform="scale(4.0128 .2492)" x="594.68" y="-1154.62"/><text x="2176.75" y="-280.73"><tspan x="2176.75" y="-280.73"/></text><text transform="scale(4.0128 .2492)" x="739.53" y="-1475.65"/><text x="1787.63" y="-753.13"><tspan x="1787.63" y="-753.13"/></text><text transform="scale(4.0128 .2492)" x="642.56" y="-3371.28"/><text x="2368.89" y="-833.14"><tspan x="2368.89" y="-833.14"/></text><text transform="scale(4.0128 .2492)" x="787.41" y="-3692.31"/><g transform="translate(258.1 45.644)"><text x="277.99" y="535.94"><tspan x="277.99" y="535.94"/></text><text x="-27128.09" y="1385.19"><tspan x="-27128.09" y="1385.19"/></text></g><text transform="scale(4.0128 .2492)" x="698.27" y="-7358.25"/><text x="-27004.74" y="2342.89"><tspan x="-27004.74" y="2342.89"/></text><text transform="scale(4.0128 .2492)" x="664.73" y="-3698.43"/><g fill="#555753" transform="matrix(23.273 0 0 23.273 258.1 45.644)"><text transform="scale(1.05082 .95163)" x="-549.96" y="-204.06"><tspan x="-549.96" y="-204.06"/></text><text transform="scale(4.21679 .23715)" x="57.981" y="-1164.37"/><text transform="scale(1.05082 .95163)" x="-145.93" y="-239.51"><tspan x="-145.93" y="-239.51"/></text><text transform="scale(4.21679 .23715)" x="68.04" y="-1146.06"/><text x="-1695.66" y="-74.27"><tspan x="-1695.66" y="-74.27"/></text><text transform="scale(4.0128 .2492)" x="-117.54" y="-838.39"/></g><g transform="matrix(23.273 0 0 23.273 258.1 45.644)"><text stroke="#cd1d31" x="-1086.23" y="-599.63"><tspan x="-1086.23" y="-599.63"/></text><text transform="scale(4.0128 .2492)" x="47.04" y="-2969.12"/><text stroke="#cd1d31" x="-1092.03" y="-560.44"><tspan x="-1092.03" y="-560.44"/></text><text transform="scale(4.0128 .2492)" x="45.593" y="-2811.85"/><g fill="#555753"><g stroke="#cd1d31"><text transform="scale(1.05082 .95163)" x="-474.37" y="-896.71"><tspan x="-474.37" y="-896.71"/></text><text transform="scale(4.21679 .23715)" x="76.82" y="-3943.87"/><text transform="scale(1.05082 .95163)" x="-70.35" y="-932.16"><tspan x="-70.35" y="-932.16"/></text><text transform="scale(4.21679 .23715)" x="86.87" y="-3925.56"/><text x="-1616.23" y="-733.42"><tspan x="-1616.23" y="-733.42"/></text></g><text transform="scale(4.0128 .2492)" x="-97.75" y="-3483.46"/></g><text stroke="#cd1d31" x="-356.8" y="-887.07"><tspan x="-356.8" y="-887.07"/></text><text transform="scale(4.0128 .2492)" x="216.1" y="-4100.03"/><text stroke="#cd1d31" x="542.82" y="-1010.89"><tspan x="542.82" y="-1010.89"/></text><text transform="scale(4.0128 .2492)" x="440.29" y="-4596.89"/></g><text x="2980.28" y="412.65"><tspan x="2980.28" y="412.65"/></text><text transform="scale(4.0128 .2492)" x="939.76" y="1306.73"/><text x="3561.54" y="332.65"><tspan x="3561.54" y="332.65"/></text><text transform="scale(4.0128 .2492)" x="1084.61" y="985.7"/><text x="2489.97" y="151.39"><tspan x="2489.97" y="151.39"/></text><text transform="scale(4.0128 .2492)" x="817.58" y="258.35"/><text x="3588.02" y="-65.08"><tspan x="3588.02" y="-65.08"/></text><text transform="scale(4.0128 .2492)" x="1091.21" y="-610.32"/><text x="4169.27" y="-145.09"><tspan x="4169.27" y="-145.09"/></text><text transform="scale(4.0128 .2492)" x="1236.06" y="-931.35"/><text x="3780.16" y="-617.49"><tspan x="3780.16" y="-617.49"/></text><text transform="scale(4.0128 .2492)" x="1139.09" y="-2827"/><text x="4361.42" y="-697.49"><tspan x="4361.42" y="-697.49"/></text><text transform="scale(4.0128 .2492)" x="1283.95" y="-3148.04"/><text x="2528.62" y="717.23"><tspan x="2528.62" y="717.23"/></text><text x="2413.36" y="274.17"><tspan x="2413.36" y="274.17"/></text><text transform="scale(4.0128 .2492)" x="798.49" y="751.04"/><text x="2994.63" y="194.17"><tspan x="2994.63" y="194.17"/></text><text transform="scale(4.0128 .2492)" x="943.34" y="430.01"/><text x="1923.05" y="12.91"><tspan x="1923.05" y="12.91"/></text><text transform="scale(4.0128 .2492)" x="676.3" y="-297.35"/><text x="3021.1" y="-203.56"><tspan x="3021.1" y="-203.56"/></text><text transform="scale(4.0128 .2492)" x="949.94" y="-1166"/><text x="3602.37" y="-283.57"><tspan x="3602.37" y="-283.57"/></text><text transform="scale(4.0128 .2492)" x="1094.79" y="-1487.04"/><text x="3213.25" y="-755.97"><tspan x="3213.25" y="-755.97"/></text><text transform="scale(4.0128 .2492)" x="997.82" y="-3382.68"/><text x="3794.51" y="-835.97"><tspan x="3794.51" y="-835.97"/></text><text transform="scale(4.0128 .2492)" x="1142.67" y="-3703.71"/><g transform="translate(1683.7 42.811)"><text x="277.99" y="535.94"><tspan x="277.99" y="535.94"/></text><text x="-27646.87" y="1125.07"><tspan x="-27646.87" y="1125.07"/></text></g><text transform="scale(4.0128 .2492)" x="923.91" y="-8412.87"/><text x="-26097.9" y="2079.9"><tspan x="-26097.9" y="2079.9"/></text><text transform="scale(4.0128 .2492)" x="890.37" y="-4753.2"/><g fill="#555753" transform="matrix(23.272 0 0 23.272 1163.7 -217.25)"><text transform="scale(1.05082 .95163)" x="-549.96" y="-204.06"><tspan x="-549.96" y="-204.06"/></text><text transform="scale(4.21679 .23715)" x="57.981" y="-1164.37"/><text transform="scale(1.05082 .95163)" x="-145.93" y="-239.51"><tspan x="-145.93" y="-239.51"/></text><text transform="scale(4.21679 .23715)" x="68.04" y="-1146.06"/><text x="-1695.66" y="-74.27"><tspan x="-1695.66" y="-74.27"/></text><text transform="scale(4.0128 .2492)" x="-117.54" y="-838.39"/></g><g transform="matrix(23.272 0 0 23.272 1163.7 -217.25)"><text stroke="#cd1d31" x="-1086.23" y="-599.63"><tspan x="-1086.23" y="-599.63"/></text><text transform="scale(4.0128 .2492)" x="47.04" y="-2969.12"/><text stroke="#cd1d31" x="-1092.03" y="-560.44"><tspan x="-1092.03" y="-560.44"/></text><text transform="scale(4.0128 .2492)" x="45.593" y="-2811.85"/><g fill="#555753"><g stroke="#cd1d31"><text transform="scale(1.05082 .95163)" x="-474.37" y="-896.71"><tspan x="-474.37" y="-896.71"/></text><text transform="scale(4.21679 .23715)" x="76.82" y="-3943.87"/><text transform="scale(1.05082 .95163)" x="-70.35" y="-932.16"><tspan x="-70.35" y="-932.16"/></text><text transform="scale(4.21679 .23715)" x="86.87" y="-3925.56"/><text x="-1616.23" y="-733.42"><tspan x="-1616.23" y="-733.42"/></text></g><text transform="scale(4.0128 .2492)" x="-97.75" y="-3483.46"/></g><text stroke="#cd1d31" x="-356.8" y="-887.07"><tspan x="-356.8" y="-887.07"/></text><text transform="scale(4.0128 .2492)" x="216.1" y="-4100.03"/><text stroke="#cd1d31" x="542.82" y="-1010.89"><tspan x="542.82" y="-1010.89"/></text><text transform="scale(4.0128 .2492)" x="440.29" y="-4596.89"/></g><text x="826.66" y="204.9"><tspan x="826.66" y="204.9"/></text><text transform="scale(4.0128 .2492)" x="403.09" y="473.09"/><text x="1407.93" y="124.9"><tspan x="1407.93" y="124.9"/></text><text transform="scale(4.0128 .2492)" x="547.94" y="152.05"/><text x="336.35" y="-56.36"><tspan x="336.35" y="-56.36"/></text><text transform="scale(4.0128 .2492)" x="280.9" y="-575.28"/><text x="1434.4" y="-272.83"><tspan x="1434.4" y="-272.83"/></text><text transform="scale(4.0128 .2492)" x="554.54" y="-1443.95"/><text x="2015.67" y="-352.83"><tspan x="2015.67" y="-352.83"/></text><text transform="scale(4.0128 .2492)" x="699.39" y="-1764.98"/><text x="1626.55" y="-825.23"><tspan x="1626.55" y="-825.23"/></text><text transform="scale(4.0128 .2492)" x="602.42" y="-3660.61"/><text x="2207.81" y="-905.24"><tspan x="2207.81" y="-905.24"/></text><text transform="scale(4.0128 .2492)" x="747.27" y="-3981.65"/><g transform="translate(630.69 -10.927)"><text x="-255.68" y="520.41"><tspan x="-255.68" y="520.41"/></text><text x="-139.98" y="156"><tspan x="-139.98" y="156"/></text></g><text transform="scale(4.0128 .2492)" x="319.37" y="233"/><text x="1071.98" y="65.07"><tspan x="1071.98" y="65.07"/></text><text transform="scale(4.0128 .2492)" x="464.22" y="-88.03"/><text x=".398" y="-116.19"><tspan x=".398" y="-116.19"/></text><text transform="scale(4.0128 .2492)" x="197.18" y="-815.37"/><text x="1098.45" y="-332.66"><tspan x="1098.45" y="-332.66"/></text><text transform="scale(4.0128 .2492)" x="470.82" y="-1684.04"/><text x="1679.72" y="-412.67"><tspan x="1679.72" y="-412.67"/></text><text transform="scale(4.0128 .2492)" x="615.66" y="-2005.08"/><text x="1290.6" y="-885.07"><tspan x="1290.6" y="-885.07"/></text><text transform="scale(4.0128 .2492)" x="518.7" y="-3900.72"/><text x="1871.86" y="-965.07"><tspan x="1871.86" y="-965.07"/></text><text transform="scale(4.0128 .2492)" x="663.54" y="-4221.75"/><text x="39.06" y="449.65"><tspan x="39.06" y="449.65"/></text><text x="733.09" y="197.23"><tspan x="733.09" y="197.23"/></text><text transform="scale(4.0128 .2492)" x="379.77" y="442.31"/><text x="1314.36" y="117.23"><tspan x="1314.36" y="117.23"/></text><text transform="scale(4.0128 .2492)" x="524.62" y="121.27"/><text x="242.78" y="-64.03"><tspan x="242.78" y="-64.03"/></text><text transform="scale(4.0128 .2492)" x="257.58" y="-606.06"/><text x="1340.83" y="-280.5"><tspan x="1340.83" y="-280.5"/></text><text transform="scale(4.0128 .2492)" x="531.22" y="-1474.73"/><text x="1922.1" y="-360.5"><tspan x="1922.1" y="-360.5"/></text><text transform="scale(4.0128 .2492)" x="676.07" y="-1795.76"/><text x="1532.98" y="-832.9"><tspan x="1532.98" y="-832.9"/></text><text transform="scale(4.0128 .2492)" x="579.1" y="-3691.39"/><text x="2114.24" y="-912.91"><tspan x="2114.24" y="-912.91"/></text><text transform="scale(4.0128 .2492)" x="723.95" y="-4012.42"/><g transform="translate(3.448 -34.13)"><text x="277.99" y="535.94"><tspan x="277.99" y="535.94"/></text><text x="-27128.09" y="1385.19"><tspan x="-27128.09" y="1385.19"/></text></g><text transform="scale(4.0128 .2492)" x="634.81" y="-7678.36"/><text x="-27259.39" y="2263.12"><tspan x="-27259.39" y="2263.12"/></text><text transform="scale(4.0128 .2492)" x="601.27" y="-4018.54"/><g fill="#555753" transform="matrix(23.273 0 0 23.273 3.448 -34.13)"><text transform="scale(1.05082 .95163)" x="-549.96" y="-204.06"><tspan x="-549.96" y="-204.06"/></text><text transform="scale(4.21679 .23715)" x="57.981" y="-1164.37"/><text transform="scale(1.05082 .95163)" x="-145.93" y="-239.51"><tspan x="-145.93" y="-239.51"/></text><text transform="scale(4.21679 .23715)" x="68.04" y="-1146.06"/><text x="-1695.66" y="-74.27"><tspan x="-1695.66" y="-74.27"/></text><text transform="scale(4.0128 .2492)" x="-117.54" y="-838.39"/></g><g transform="matrix(23.273 0 0 23.273 3.448 -34.13)"><text stroke="#cd1d31" x="-1086.23" y="-599.63"><tspan x="-1086.23" y="-599.63"/></text><text transform="scale(4.0128 .2492)" x="47.04" y="-2969.12"/><text stroke="#cd1d31" x="-1092.03" y="-560.44"><tspan x="-1092.03" y="-560.44"/></text><text transform="scale(4.0128 .2492)" x="45.593" y="-2811.85"/><g fill="#555753"><g stroke="#cd1d31"><text transform="scale(1.05082 .95163)" x="-474.37" y="-896.71"><tspan x="-474.37" y="-896.71"/></text><text transform="scale(4.21679 .23715)" x="76.82" y="-3943.87"/><text transform="scale(1.05082 .95163)" x="-70.35" y="-932.16"><tspan x="-70.35" y="-932.16"/></text><text transform="scale(4.21679 .23715)" x="86.87" y="-3925.56"/><text x="-1616.23" y="-733.42"><tspan x="-1616.23" y="-733.42"/></text></g><text transform="scale(4.0128 .2492)" x="-97.75" y="-3483.46"/></g><text stroke="#cd1d31" x="-356.8" y="-887.07"><tspan x="-356.8" y="-887.07"/></text><text transform="scale(4.0128 .2492)" x="216.1" y="-4100.03"/><text stroke="#cd1d31" x="542.82" y="-1010.89"><tspan x="542.82" y="-1010.89"/></text><text transform="scale(4.0128 .2492)" x="440.29" y="-4596.89"/></g><text x="2725.62" y="332.88"><tspan x="2725.62" y="332.88"/></text><text transform="scale(4.0128 .2492)" x="876.3" y="986.63"/><text x="3306.88" y="252.88"><tspan x="3306.88" y="252.88"/></text><text transform="scale(4.0128 .2492)" x="1021.15" y="665.59"/><text x="2235.31" y="71.62"><tspan x="2235.31" y="71.62"/></text><text transform="scale(4.0128 .2492)" x="754.12" y="-61.757"/><text x="3333.36" y="-144.85"><tspan x="3333.36" y="-144.85"/></text><text transform="scale(4.0128 .2492)" x="1027.75" y="-930.42"/><text x="3914.62" y="-224.86"><tspan x="3914.62" y="-224.86"/></text><text transform="scale(4.0128 .2492)" x="1172.6" y="-1251.46"/><text x="3525.5" y="-697.26"><tspan x="3525.5" y="-697.26"/></text><text transform="scale(4.0128 .2492)" x="1075.63" y="-3147.11"/><text x="4106.77" y="-777.26"><tspan x="4106.77" y="-777.26"/></text><text transform="scale(4.0128 .2492)" x="1220.49" y="-3468.15"/><text x="2273.96" y="637.46"><tspan x="2273.96" y="637.46"/></text><text x="2158.7" y="194.4"><tspan x="2158.7" y="194.4"/></text><text transform="scale(4.0128 .2492)" x="735.03" y="430.93"/><text x="2739.97" y="114.4"><tspan x="2739.97" y="114.4"/></text><text transform="scale(4.0128 .2492)" x="879.88" y="109.9"/><text x="1668.39" y="-66.862"><tspan x="1668.39" y="-66.862"/></text><text transform="scale(4.0128 .2492)" x="612.84" y="-617.45"/><text x="2766.44" y="-283.33"><tspan x="2766.44" y="-283.33"/></text><text transform="scale(4.0128 .2492)" x="886.48" y="-1486.11"/><text x="3347.71" y="-363.34"><tspan x="3347.71" y="-363.34"/></text><text transform="scale(4.0128 .2492)" x="1031.33" y="-1807.15"/><text x="2958.59" y="-835.74"><tspan x="2958.59" y="-835.74"/></text><text transform="scale(4.0128 .2492)" x="934.36" y="-3702.79"/><text x="3539.85" y="-915.74"><tspan x="3539.85" y="-915.74"/></text><text transform="scale(4.0128 .2492)" x="1079.21" y="-4023.82"/><g transform="translate(1429.06 -36.961)"><text x="277.99" y="535.94"><tspan x="277.99" y="535.94"/></text><text x="-27646.87" y="1125.07"><tspan x="-27646.87" y="1125.07"/></text></g><text transform="scale(4.0128 .2492)" x="860.45" y="-8732.97"/><text x="-26352.55" y="2000.13"><tspan x="-26352.55" y="2000.13"/></text><text transform="scale(4.0128 .2492)" x="826.91" y="-5073.31"/><g fill="#555753" transform="matrix(23.272 0 0 23.272 909.04 -297.02)"><text transform="scale(1.05082 .95163)" x="-549.96" y="-204.06"><tspan x="-549.96" y="-204.06"/></text><text transform="scale(4.21679 .23715)" x="57.981" y="-1164.37"/><text transform="scale(1.05082 .95163)" x="-145.93" y="-239.51"><tspan x="-145.93" y="-239.51"/></text><text transform="scale(4.21679 .23715)" x="68.04" y="-1146.06"/><text x="-1695.66" y="-74.27"><tspan x="-1695.66" y="-74.27"/></text><text transform="scale(4.0128 .2492)" x="-117.54" y="-838.39"/></g><g transform="matrix(23.272 0 0 23.272 909.04 -297.02)"><text stroke="#cd1d31" x="-1086.23" y="-599.63"><tspan x="-1086.23" y="-599.63"/></text><text transform="scale(4.0128 .2492)" x="47.04" y="-2969.12"/><text stroke="#cd1d31" x="-1092.03" y="-560.44"><tspan x="-1092.03" y="-560.44"/></text><text transform="scale(4.0128 .2492)" x="45.593" y="-2811.85"/><g fill="#555753"><g stroke="#cd1d31"><text transform="scale(1.05082 .95163)" x="-474.37" y="-896.71"><tspan x="-474.37" y="-896.71"/></text><text transform="scale(4.21679 .23715)" x="76.82" y="-3943.87"/><text transform="scale(1.05082 .95163)" x="-70.35" y="-932.16"><tspan x="-70.35" y="-932.16"/></text><text transform="scale(4.21679 .23715)" x="86.87" y="-3925.56"/><text x="-1616.23" y="-733.42"><tspan x="-1616.23" y="-733.42"/></text></g><text transform="scale(4.0128 .2492)" x="-97.75" y="-3483.46"/></g><text stroke="#cd1d31" x="-356.8" y="-887.07"><tspan x="-356.8" y="-887.07"/></text><text transform="scale(4.0128 .2492)" x="216.1" y="-4100.03"/><text stroke="#cd1d31" x="542.82" y="-1010.89"><tspan x="542.82" y="-1010.89"/></text><text transform="scale(4.0128 .2492)" x="440.29" y="-4596.89"/></g><text x="-73.832" y="-8.33"><tspan x="-73.832" y="-8.33"/></text><text transform="scale(4.0128 .2492)" x="178.68" y="-382.58"/><text x="507.44" y="-88.33"><tspan x="507.44" y="-88.33"/></text><text transform="scale(4.0128 .2492)" x="323.53" y="-703.61"/><text x="-564.14" y="-269.59"><tspan x="-564.14" y="-269.59"/></text><text transform="scale(4.0128 .2492)" x="56.49" y="-1430.96"/><text x="533.91" y="-486.06"><tspan x="533.91" y="-486.06"/></text><text transform="scale(4.0128 .2492)" x="330.13" y="-2299.64"/><text x="1115.18" y="-566.06"><tspan x="1115.18" y="-566.06"/></text><text transform="scale(4.0128 .2492)" x="474.98" y="-2620.67"/><text x="726.06" y="-1038.46"><tspan x="726.06" y="-1038.46"/></text><text transform="scale(4.0128 .2492)" x="378.01" y="-4516.32"/><text x="1307.32" y="-1118.47"><tspan x="1307.32" y="-1118.47"/></text><text transform="scale(4.0128 .2492)" x="522.86" y="-4837.35"/><text x="-525.48" y="296.25"><tspan x="-525.48" y="296.25"/></text><text x="-73.832" y="-8.33"><tspan x="-73.832" y="-8.33"/></text><text transform="scale(4.0128 .2492)" x="178.68" y="-382.58"/><text x="507.44" y="-88.33"><tspan x="507.44" y="-88.33"/></text><text transform="scale(4.0128 .2492)" x="323.53" y="-703.61"/><text x="-564.14" y="-269.59"><tspan x="-564.14" y="-269.59"/></text><text transform="scale(4.0128 .2492)" x="56.49" y="-1430.96"/><text x="533.91" y="-486.06"><tspan x="533.91" y="-486.06"/></text><text transform="scale(4.0128 .2492)" x="330.13" y="-2299.64"/><text x="1115.18" y="-566.06"><tspan x="1115.18" y="-566.06"/></text><text transform="scale(4.0128 .2492)" x="474.98" y="-2620.67"/><text x="726.06" y="-1038.46"><tspan x="726.06" y="-1038.46"/></text><text transform="scale(4.0128 .2492)" x="378.01" y="-4516.32"/><text x="1307.32" y="-1118.47"><tspan x="1307.32" y="-1118.47"/></text><text transform="scale(4.0128 .2492)" x="522.86" y="-4837.35"/><text x="-525.48" y="296.25"><tspan x="-525.48" y="296.25"/></text><text x="-36.825" y="832.23"><tspan x="-36.825" y="832.23"/></text><text transform="scale(4.0128 .2492)" x="187.9" y="2990.43"/><text x="544.45" y="752.23"><tspan x="544.45" y="752.23"/></text><text transform="scale(4.0128 .2492)" x="332.75" y="2669.4"/><text x="-527.13" y="570.97"><tspan x="-527.13" y="570.97"/></text><text transform="scale(4.0128 .2492)" x="65.71" y="1942.05"/><text x="570.92" y="354.5"><tspan x="570.92" y="354.5"/></text><text transform="scale(4.0128 .2492)" x="339.35" y="1073.38"/><text x="1152.19" y="274.49"><tspan x="1152.19" y="274.49"/></text><text transform="scale(4.0128 .2492)" x="484.2" y="752.34"/><text x="763.07" y="-197.91"><tspan x="763.07" y="-197.91"/></text><text transform="scale(4.0128 .2492)" x="387.23" y="-1143.31"/><text x="1344.33" y="-277.91"><tspan x="1344.33" y="-277.91"/></text><text transform="scale(4.0128 .2492)" x="532.08" y="-1464.34"/><g transform="translate(-766.46 600.87)"><text x="277.99" y="535.94"><tspan x="277.99" y="535.94"/></text><text x="-860.84" y="11.553"><tspan x="-860.84" y="11.553"/></text><text x="-3219.67" y="289.67"><tspan x="-3219.67" y="289.67"/></text><text x="-2931.46" y="62.38"><tspan x="-2931.46" y="62.38"/></text><text x="1263.14" y="-194.52"><tspan x="1263.14" y="-194.52"/></text><text x="-864.79" y="-49.48"><tspan x="-864.79" y="-49.48"/></text><text x="-3223.62" y="228.64"><tspan x="-3223.62" y="228.64"/></text><text x="-2935.41" y="1.35"><tspan x="-2935.41" y="1.35"/></text></g><text x="977" y="195.7"><tspan x="977" y="195.7"/></text><text transform="scale(4.0128 .2492)" x="440.55" y="436.15"/><text x="1558.27" y="115.7"><tspan x="1558.27" y="115.7"/></text><text transform="scale(4.0128 .2492)" x="585.4" y="115.12"/><text x="486.69" y="-65.56"><tspan x="486.69" y="-65.56"/></text><text transform="scale(4.0128 .2492)" x="318.36" y="-612.22"/><text x="1584.74" y="-282.03"><tspan x="1584.74" y="-282.03"/></text><text transform="scale(4.0128 .2492)" x="592" y="-1480.89"/><text x="2166.01" y="-362.03"><tspan x="2166.01" y="-362.03"/></text><text transform="scale(4.0128 .2492)" x="736.85" y="-1801.91"/><text x="1776.89" y="-834.43"><tspan x="1776.89" y="-834.43"/></text><text transform="scale(4.0128 .2492)" x="639.88" y="-3697.54"/><text x="2358.15" y="-914.44"><tspan x="2358.15" y="-914.44"/></text><text transform="scale(4.0128 .2492)" x="784.73" y="-4018.58"/><g transform="translate(781.03 -20.13)"><text x="-255.68" y="520.41"><tspan x="-255.68" y="520.41"/></text><text x="-139.98" y="156"><tspan x="-139.98" y="156"/></text></g><text transform="scale(4.0128 .2492)" x="356.83" y="196.07"/><text x="1222.32" y="55.869"><tspan x="1222.32" y="55.869"/></text><text transform="scale(4.0128 .2492)" x="501.68" y="-124.96"/><text x="150.74" y="-125.39"><tspan x="150.74" y="-125.39"/></text><text transform="scale(4.0128 .2492)" x="234.64" y="-852.31"/><text x="1248.79" y="-341.86"><tspan x="1248.79" y="-341.86"/></text><text transform="scale(4.0128 .2492)" x="508.28" y="-1720.97"/><text x="1830.06" y="-421.87"><tspan x="1830.06" y="-421.87"/></text><text transform="scale(4.0128 .2492)" x="653.12" y="-2042.01"/><text x="1440.94" y="-894.27"><tspan x="1440.94" y="-894.27"/></text><text transform="scale(4.0128 .2492)" x="556.16" y="-3937.65"/><text x="2022.2" y="-974.27"><tspan x="2022.2" y="-974.27"/></text><text transform="scale(4.0128 .2492)" x="701" y="-4258.68"/><text x="189.4" y="440.45"><tspan x="189.4" y="440.45"/></text><text x="883.43" y="188.03"><tspan x="883.43" y="188.03"/></text><text transform="scale(4.0128 .2492)" x="417.23" y="405.37"/><text x="1464.7" y="108.03"><tspan x="1464.7" y="108.03"/></text><text transform="scale(4.0128 .2492)" x="562.08" y="84.34"/><text x="393.12" y="-73.23"><tspan x="393.12" y="-73.23"/></text><text transform="scale(4.0128 .2492)" x="295.04" y="-643"/><text x="1491.17" y="-289.7"><tspan x="1491.17" y="-289.7"/></text><text transform="scale(4.0128 .2492)" x="568.68" y="-1511.67"/><text x="2072.44" y="-369.7"><tspan x="2072.44" y="-369.7"/></text><text transform="scale(4.0128 .2492)" x="713.53" y="-1832.69"/><text x="1683.32" y="-842.1"><tspan x="1683.32" y="-842.1"/></text><text transform="scale(4.0128 .2492)" x="616.56" y="-3728.32"/><text x="2264.58" y="-922.11"><tspan x="2264.58" y="-922.11"/></text><text transform="scale(4.0128 .2492)" x="761.41" y="-4049.35"/><g transform="translate(153.79 -43.33)"><text x="277.99" y="535.94"><tspan x="277.99" y="535.94"/></text><text x="-27128.09" y="1385.19"><tspan x="-27128.09" y="1385.19"/></text></g><text transform="scale(4.0128 .2492)" x="672.27" y="-7715.29"/><text x="-27109.06" y="2253.92"><tspan x="-27109.06" y="2253.92"/></text><text transform="scale(4.0128 .2492)" x="638.73" y="-4055.47"/><g fill="#555753" transform="matrix(23.273 0 0 23.273 153.79 -43.33)"><text transform="scale(1.05082 .95163)" x="-549.96" y="-204.06"><tspan x="-549.96" y="-204.06"/></text><text transform="scale(4.21679 .23715)" x="57.981" y="-1164.37"/><text transform="scale(1.05082 .95163)" x="-145.93" y="-239.51"><tspan x="-145.93" y="-239.51"/></text><text transform="scale(4.21679 .23715)" x="68.04" y="-1146.06"/><text x="-1695.66" y="-74.27"><tspan x="-1695.66" y="-74.27"/></text><text transform="scale(4.0128 .2492)" x="-117.54" y="-838.39"/></g><g transform="matrix(23.273 0 0 23.273 153.79 -43.33)"><text stroke="#cd1d31" x="-1086.23" y="-599.63"><tspan x="-1086.23" y="-599.63"/></text><text transform="scale(4.0128 .2492)" x="47.04" y="-2969.12"/><text stroke="#cd1d31" x="-1092.03" y="-560.44"><tspan x="-1092.03" y="-560.44"/></text><text transform="scale(4.0128 .2492)" x="45.593" y="-2811.85"/><g fill="#555753"><g stroke="#cd1d31"><text transform="scale(1.05082 .95163)" x="-474.37" y="-896.71"><tspan x="-474.37" y="-896.71"/></text><text transform="scale(4.21679 .23715)" x="76.82" y="-3943.87"/><text transform="scale(1.05082 .95163)" x="-70.35" y="-932.16"><tspan x="-70.35" y="-932.16"/></text><text transform="scale(4.21679 .23715)" x="86.87" y="-3925.56"/><text x="-1616.23" y="-733.42"><tspan x="-1616.23" y="-733.42"/></text></g><text transform="scale(4.0128 .2492)" x="-97.75" y="-3483.46"/></g><text stroke="#cd1d31" x="-356.8" y="-887.07"><tspan x="-356.8" y="-887.07"/></text><text transform="scale(4.0128 .2492)" x="216.1" y="-4100.03"/><text stroke="#cd1d31" x="542.82" y="-1010.89"><tspan x="542.82" y="-1010.89"/></text><text transform="scale(4.0128 .2492)" x="440.29" y="-4596.89"/></g><path d="m384.12 116.47c-.556.039-1.17.21-2.33.541-1.814.524-4.238 2.634-12.68 10.953l-10.43 10.309-3.191-2.037c-14.163-9.07-34.677-11.421-50.912-5.857-11.18 3.837-16.813 7.725-30.33 21l-10.918 10.727-6.088-5.912c-6.734-6.558-9.332-7.902-13.588-7.117-6.854 1.273-10.273 6.978-8.318 13.885.537 1.955 7.703 9.348 54.693 56.44 3.28 3.288 6.507 6.517 9.654 9.664l139.39 139.39c20.831-33.508 32.875-73.05 32.875-115.41 0-21.793-3.2-42.836-9.129-62.701l-70.12-70.12c-1.385-1.385-3.264-2.773-4.234-2.975-.663-.14-1.709-.366-2.303-.488l9.09 9.09c0 .005.001.009.002.014l-9.148-9.148c-.924-.192-1.423-.283-1.979-.244m-150.09 107.34c-3.733-.001-7.589 3.886-23.713 19.912l-18.697 18.576-12.404-12.32c-6.82-6.785-13.203-12.853-14.162-13.516-3.416-2.32-9.07-2.059-12.416.574-3.489 2.74-4.675 8.776-2.582 13.08.636 1.307 3.504 4.707 6.473 7.676l.139.137 5.434 5.434-10.754 10.943c-13.307 13.551-17.196 19.17-21.03 30.348-5.566 16.242-3.212 36.734 5.857 50.914l2.035 3.191-10.324 10.428c-9.104 9.192-10.395 10.727-10.918 12.889-.61 2.547-.243 5.916.855 7.973.291.544.827 1.195 1.475 1.842l70.889 70.891c19.91 5.958 41.01 9.174 62.854 9.174 64.26 0 122.04-27.685 162.09-71.78l-130.31-130.31c-.095-.095-.193-.186-.291-.273-.206-.184-.453-.366-.723-.545l-41.863-41.863c-1.053-1.053-2.327-1.874-3.736-2.361l-.027-.027c-1.666-.559-2.896-.99-4.141-.99" opacity=".25"/><path d="m386.15 116.76c.594.122 1.639.349 2.303.489 1.431.296 4.832 3.174 5.721 4.814 1.098 2.057 1.465 5.424.855 7.971-.523 2.162-1.814 3.698-10.918 12.889l-10.326 10.429 2.036 3.191c9.07 14.18 11.424 34.671 5.858 50.913-3.837 11.18-7.727 16.796-21.03 30.348l-10.761 10.953 5.442 5.424c6.192 6.159 7.813 8.895 7.674 12.907-.313 8.686-9.401 13.151-16.587 8.128-1.273-.889-26.651-26-56.39-55.814-46.99-47.09-54.16-54.49-54.694-56.44-1.955-6.907 1.465-12.61 8.319-13.883 4.256-.785 6.854.558 13.588 7.116l6.087 5.913 10.918-10.727c13.517-13.275 19.15-17.16 30.33-21 16.235-5.563 36.75-3.209 50.913 5.858l3.191 2.036 10.429-10.308c8.441-8.319 10.866-10.429 12.68-10.953 2.32-.663 2.459-.68 4.308-.296m-147.98 108.07c4.01 1.343 6.925 5.424 6.925 9.698 0 4.133-.628 4.901-19.814 24.16l-18.628 18.697 14.04 14.04 14.04 14.04 18.416-18.406c18.818-18.799 20.354-20.07 24.33-20.07 2.093 0 5.582 1.291 7.099 2.651 3.052 2.704 4.186 8.964 2.303 12.628-.541 1.047-9.102 10.06-19.05 20.04l-18.05 18.14 13.1 13.234c10.779 10.884 13.221 13.639 13.762 15.488 1.988 6.871-1.447 12.61-8.302 13.883-4.256.785-6.854-.558-13.588-7.116l-6.087-5.913-10.918 10.727c-13.517 13.275-19.15 17.16-30.33 21-16.235 5.563-36.75 3.209-50.913-5.858l-3.191-2.036-10.429 10.308c-8.546 8.441-10.849 10.429-12.733 10.971-1.256.366-2.912.541-3.68.384s-1.988-.418-2.738-.575c-1.535-.313-4.937-3.122-5.858-4.849-1.099-2.057-1.465-5.424-.855-7.971.523-2.162 1.814-3.698 10.918-12.889l10.326-10.429-2.036-3.191c-9.07-14.18-11.424-34.671-5.858-50.913 3.837-11.18 7.727-16.796 21.03-30.348l10.761-10.953-5.442-5.424c-3.02-3-5.965-6.486-6.61-7.813-2.093-4.308-.907-10.343 2.582-13.08 3.349-2.633 9-2.896 12.416-.575.959.663 7.343 6.732 14.162 13.517l12.403 12.319 18.697-18.575c21.498-21.369 21.19-21.16 27.855-18.922" fill="#fffafa"/></svg>