<?xml version="1.0" encoding="UTF-8"?>
<svg version="1.1" viewBox="0 0 1920 1920" width="1280" height="1280" xmlns="http://www.w3.org/2000/svg">
<path transform="translate(659,621)" d="m0 0h20l21 2 25 5 18 6 21 10 14 9 13 10 12 11 7 7 13 17 10 16 10 19 10 26 8 30 4 23 2 20v51l-3 28-4 24-9 36-9 27-10 24-13 26-12 20-14 20-8 10-11 13-20 20-14 11-15 11-21 12-8 4v1l30 5 39 4 26 1h84l3 5-2 9-6 15-8 16-9 16-13 17-8 9-8 7-14 11-15 9-7 4h-18l-25-3-20-4-15-5-19-9-14-10-12-11-8-8-10-13-9-16-5-11-5-15v-3l-3 1-21 2h-34l-24-3-24-6-23-9-14-8-14-10-15-13-8-8-9-11-10-14-9-15-9-19-7-19-7-25-4-20-3-23-1-15v-35l2-25 5-32 7-30 12-36 10-24 13-26 11-18 8-12 14-19 13-15 20-20 11-9 16-12 19-12 27-13 24-8 25-5 17-2zm-23 99-16 4-16 8-11 9-12 12-9 12-8 13-8 15-10 25-7 24-6 29-3 23-1 12v47l3 26 3 17 6 23 6 16 8 16 8 12 9 11 12 10 12 6 16 4h18l16-4 11-6 9-7 12-12 11-16 9-16 10-24 8-25 6-26 4-27 2-21 1-30-1-26-3-27-5-26-6-21-8-19-10-16-9-10-8-7-12-6-8-2z" fill="#F9009D"/>
<path transform="translate(1252,785)" d="m0 0 9 1 18 5 12 5 12 7 9 8 10 14 7 14 3 11 1 6v18l-2 7-24 11-14 8-18 12-14 11-12 11-25 25-7 8-12 14-11 14-13 17-10 13-12 15-18 22-12 14-4 6 12 9 14 7 14 4 15 1 11-2 12-6 10-10 7-14 2-8v-16l-4-13-1-4 18-3 9-1h19l19 3 15 5 9 5 11 9 9 12 7 14 3 11 1 6v17l-3 15-6 16-8 14-9 11-8 7-11 8-16 8-14 4-10 2h-29l-25-5-21-7-22-10-19-11-19-13-13-10-11-9-7-5-12 12-8 7-13 11-20 15-18 12-15 9-7 4h-8l-17-4-12-5-11-7-12-11-7-10-7-14-7-21-3-14v-5l12-5 21-10 16-10 12-9 11-9 10-9 13-12 31-31 7-8 9-10 9-11 10-11 9-11 9-10 9-11 10-11 9-11 10-11 1-3-5-2-13-6-17-4h-20l-12 3-10 6-3 3h-2l-2 4-4 6-3 11v15l4 15 7 14-1 3-17 2h-30l-19-3-12-4-14-7-13-11-8-10-8-14-5-13-2-11v-19l3-15 5-14 6-11 6-8 9-10 10-8 11-7 15-6 19-4h28l20 3 24 7 25 10 23 12 22 14 19 14 4 2 7-8 24-24 8-7 14-12 21-14z" fill="#F9009D"/>
<path transform="translate(1448,1041)" d="m0 0h16l16 3 12 5 10 6 10 9 8 9 8 16 3 14v17l-3 15-7 16-9 12-11 11-14 9-11 5-17 4-21 1-16-3-13-5-11-7-10-9-9-13-5-12-3-14v-16l3-15 5-12 7-12 11-12 12-9 16-8 16-4z" fill="#F9009D"/>
</svg>
